<?xml version="1.0" encoding="utf-8"?>
<!-- Generator: Adobe Illustrator 18.1.1, SVG Export Plug-In . SVG Version: 6.00 Build 0)  -->
<svg version="1.1" id="Layer_2" xmlns="http://www.w3.org/2000/svg" xmlns:xlink="http://www.w3.org/1999/xlink" x="0px" y="0px"
	 viewBox="0 0 458.3 458.7" enable-background="new 0 0 458.3 458.7" xml:space="preserve">
<g id="Layer_2_1_">
	<g>
		
			<linearGradient id="SVGID_1_" gradientUnits="userSpaceOnUse" x1="133.5438" y1="756.3311" x2="235.757" y2="756.3311" gradientTransform="matrix(1 0 0 -1 0 802)">
			<stop  offset="0" style="stop-color:#25CA95"/>
			<stop  offset="1" style="stop-color:#007492"/>
		</linearGradient>
		<path fill="none" stroke="url(#SVGID_1_)" stroke-width="13" stroke-miterlimit="10" d="M133.7,25c23.1-0.6,43.6-0.4,61,0.2
			c10.1,0.3,21.9,0.8,28,8.8c3.2,4.2,5.3,11.1,6,16.7c0.4,2.8,0.4,5.9,0.5,12.2c0.1,4.3,0,7.9,0,10.3"/>
		
			<linearGradient id="SVGID_2_" gradientUnits="userSpaceOnUse" x1="202.8889" y1="646.8635" x2="328.8485" y2="646.8635" gradientTransform="matrix(1 0 0 -1 0 802)">
			<stop  offset="0" style="stop-color:#25CA95"/>
			<stop  offset="1" style="stop-color:#007492"/>
		</linearGradient>
		<path fill="none" stroke="url(#SVGID_2_)" stroke-width="13" stroke-miterlimit="10" d="M202.9,147.5c27.4,0.1,54.9,0.2,82.3,0.3
			c5.3,0.7,12.1,2,19.7,5c8.7,3.4,15.4,7.8,20,11.3"/>
		
			<linearGradient id="SVGID_3_" gradientUnits="userSpaceOnUse" x1="266.7126" y1="472.7778" x2="316.847" y2="472.7778" gradientTransform="matrix(1 0 0 -1 0 802)">
			<stop  offset="0" style="stop-color:#25CA95"/>
			<stop  offset="1" style="stop-color:#007492"/>
		</linearGradient>
		<path fill="none" stroke="url(#SVGID_3_)" stroke-width="13" stroke-miterlimit="10" d="M310.7,237.2c-5.5,15.7-11,31.3-16.5,47
			c-9.2,0-18.3,0-27.5,0c5.7,0,11.3,0,17,0c-2.3,20.7-4.7,41.3-7,62c6.8,25.2,13.7,50.3,20.5,75.5"/>
		
			<linearGradient id="SVGID_4_" gradientUnits="userSpaceOnUse" x1="229.4156" y1="493.1256" x2="386.6276" y2="493.1256" gradientTransform="matrix(1 0 0 -1 0 802)">
			<stop  offset="0" style="stop-color:#25CA95"/>
			<stop  offset="1" style="stop-color:#007492"/>
		</linearGradient>
		<path fill="none" stroke="url(#SVGID_4_)" stroke-width="13" stroke-miterlimit="10" d="M380,230.4c0,27.5,0,55,0,82.5
			c0.2,3.2,0.2,7.9-0.5,13.5c-0.9,7.3-2.9,23-15.3,36.5c-2.1,2.3-9.6,10.1-22,14.8c-4.7,1.8-11.7,3.7-31,3
			c-25-0.9-37.5-1.3-47.5-7.3c-17.7-10.6-24.3-28.6-25-30.5c-1.8-5.2-2.5-10.2-2.5-10.3c-0.1-3.3-0.2-6.7-0.3-10"/>
		
			<linearGradient id="SVGID_5_" gradientUnits="userSpaceOnUse" x1="317.7024" y1="624.5189" x2="440.7271" y2="624.5189" gradientTransform="matrix(1 0 0 -1 0 802)">
			<stop  offset="0" style="stop-color:#25CA95"/>
			<stop  offset="1" style="stop-color:#007492"/>
		</linearGradient>
		<path fill="none" stroke="url(#SVGID_5_)" stroke-width="13" stroke-miterlimit="10" d="M324.2,146.2c-0.6,31.3,25.3,57.1,56,56.5
			c30-0.5,54.7-26.1,54-56.8"/>
		
			<linearGradient id="SVGID_6_" gradientUnits="userSpaceOnUse" x1="215.2126" y1="487.866" x2="256.9626" y2="487.866" gradientTransform="matrix(1 0 0 -1 0 802)">
			<stop  offset="0" style="stop-color:#25CA95"/>
			<stop  offset="1" style="stop-color:#007492"/>
		</linearGradient>
		<path fill="none" stroke="url(#SVGID_6_)" stroke-width="13" stroke-miterlimit="10" d="M221.7,295.2c0,10.4,0,20.8,0,31.3
			c9.6-0.1,19.2-0.2,28.8-0.3c0-10.3,0-20.7,0-31"/>
		
			<linearGradient id="SVGID_7_" gradientUnits="userSpaceOnUse" x1="188.8126" y1="545.2" x2="283.0126" y2="545.2" gradientTransform="matrix(1 0 0 -1 0 802)">
			<stop  offset="0" style="stop-color:#25CA95"/>
			<stop  offset="1" style="stop-color:#007492"/>
		</linearGradient>
		
			<ellipse fill="none" stroke="url(#SVGID_7_)" stroke-width="13" stroke-miterlimit="10" cx="235.9" cy="256.8" rx="40.6" ry="41.1"/>
		
			<linearGradient id="SVGID_8_" gradientUnits="userSpaceOnUse" x1="215.2126" y1="544.8" x2="256.9626" y2="544.8" gradientTransform="matrix(1 0 0 -1 0 802)">
			<stop  offset="0" style="stop-color:#25CA95"/>
			<stop  offset="1" style="stop-color:#007492"/>
		</linearGradient>
		
			<ellipse fill="none" stroke="url(#SVGID_8_)" stroke-width="13" stroke-miterlimit="10" cx="236.1" cy="257.2" rx="14.4" ry="14.5"/>
		
			<linearGradient id="SVGID_9_" gradientUnits="userSpaceOnUse" x1="62.1233" y1="510.8078" x2="354.7048" y2="510.8078" gradientTransform="matrix(1 0 0 -1 0 802)">
			<stop  offset="0" style="stop-color:#25CA95"/>
			<stop  offset="1" style="stop-color:#007492"/>
		</linearGradient>
		<path fill="none" stroke="url(#SVGID_9_)" stroke-width="13" stroke-miterlimit="10" d="M348.2,219.2c-3.3,67.3-6.7,134.7-10,202
			c-86.2,0-172.3,0-258.5,0c-6.4-100.5-10.1-174.9-11-200.5c-0.2-5.2-0.5-16.5,4.5-29.5c5.8-15.2,16.1-25.4,23.5-31.5"/>
		
			<linearGradient id="SVGID_10_" gradientUnits="userSpaceOnUse" x1="317.8126" y1="639.9" x2="440.8126" y2="639.9" gradientTransform="matrix(1 0 0 -1 0 802)">
			<stop  offset="0" style="stop-color:#25CA95"/>
			<stop  offset="1" style="stop-color:#007492"/>
		</linearGradient>
		<path fill="none" stroke="url(#SVGID_10_)" stroke-width="13" stroke-miterlimit="10" d="M352,87.3c0,13.1,0,26.3,0,39.4
			c0-6.6,0-13.2,0-19.8c-7.2,0-14.4,0-21.6,0c-1.5,0.4-3.3,1.1-4.6,2.8c-1.4,1.7-1.5,3.8-1.5,4.5c0,20.8,0,41.7,0,62.5
			c0,12.9,5.4,23.6,14.7,34.2c2.7,3.1,17.3,19.7,41.3,19.7c1.3,0,24.3-0.5,40.3-18.7c12-13.7,13.4-29.1,13.7-34
			c0-21.6,0-43.1,0-64.7c0-0.6-0.2-2.5-1.6-4.1c-2-2.3-5-2.2-5.4-2.2c-6.8,0-13.6,0-20.4,0c0-6.6,0-13.2,0-19.8
			c0,13.2,0.1,26.3,0.1,39.5"/>
		
			<linearGradient id="SVGID_11_" gradientUnits="userSpaceOnUse" x1="100.1017" y1="473.8202" x2="180.7126" y2="473.8202" gradientTransform="matrix(1 0 0 -1 0 802)">
			<stop  offset="0" style="stop-color:#25CA95"/>
			<stop  offset="1" style="stop-color:#007492"/>
		</linearGradient>
		<path fill="none" stroke="url(#SVGID_11_)" stroke-width="13" stroke-miterlimit="10" d="M106.2,236.7c5.8,16,11.7,32,17.5,48
			c19,0,38,0,57,0c-16,0-32,0-48,0c2.5,19.7,5,39.3,7.5,59c-6.8,25.5-13.7,51-20.5,76.5"/>
		
			<linearGradient id="SVGID_12_" gradientUnits="userSpaceOnUse" x1="216.9706" y1="614.0772" x2="276.2126" y2="614.0772" gradientTransform="matrix(1 0 0 -1 0 802)">
			<stop  offset="0" style="stop-color:#25CA95"/>
			<stop  offset="1" style="stop-color:#007492"/>
		</linearGradient>
		<path fill="none" stroke="url(#SVGID_12_)" stroke-width="13" stroke-miterlimit="10" d="M276.2,181.7c-13.7,0-27.3,0-41,0
			c-4.5,4.8-9,9.7-13.5,14.5"/>
		
			<linearGradient id="SVGID_13_" gradientUnits="userSpaceOnUse" x1="38.2587" y1="469.8" x2="57.243" y2="469.8" gradientTransform="matrix(1 0 0 -1 0 802)">
			<stop  offset="0" style="stop-color:#25CA95"/>
			<stop  offset="1" style="stop-color:#007492"/>
		</linearGradient>
		<path fill="none" stroke="url(#SVGID_13_)" stroke-width="13" stroke-miterlimit="10" d="M44.7,271.2c2,40.7,4,81.3,6,122"/>
		
			<linearGradient id="SVGID_14_" gradientUnits="userSpaceOnUse" x1="375.1306" y1="461.1245" x2="413.8806" y2="461.1245" gradientTransform="matrix(1 0 0 -1 0 802)">
			<stop  offset="0" style="stop-color:#25CA95"/>
			<stop  offset="1" style="stop-color:#007492"/>
		</linearGradient>
		<path fill="none" stroke="url(#SVGID_14_)" stroke-width="13" stroke-miterlimit="10" d="M406.2,291.7c0.8,6.8,1.5,16,1,27
			c-0.3,6.9-0.7,17.1-3.5,27.5c-2.2,8.2-7.8,23.9-24,40"/>
		
			<linearGradient id="SVGID_15_" gradientUnits="userSpaceOnUse" x1="106.7126" y1="722.8" x2="173.7126" y2="722.8" gradientTransform="matrix(1 0 0 -1 0 802)">
			<stop  offset="0" style="stop-color:#25CA95"/>
			<stop  offset="1" style="stop-color:#007492"/>
		</linearGradient>
		<path fill="none" stroke="url(#SVGID_15_)" stroke-width="13" stroke-miterlimit="10" d="M106.7,79.2c22.3,0,44.7,0,67,0"/>
		
			<linearGradient id="SVGID_16_" gradientUnits="userSpaceOnUse" x1="65.2126" y1="695.3" x2="174.2126" y2="695.3" gradientTransform="matrix(1 0 0 -1 0 802)">
			<stop  offset="0" style="stop-color:#25CA95"/>
			<stop  offset="1" style="stop-color:#007492"/>
		</linearGradient>
		<path fill="none" stroke="url(#SVGID_16_)" stroke-width="13" stroke-miterlimit="10" d="M65.2,106.7c36.3,0,72.7,0,109,0"/>
		
			<linearGradient id="SVGID_17_" gradientUnits="userSpaceOnUse" x1="65.7126" y1="667.8" x2="146.7126" y2="667.8" gradientTransform="matrix(1 0 0 -1 0 802)">
			<stop  offset="0" style="stop-color:#25CA95"/>
			<stop  offset="1" style="stop-color:#007492"/>
		</linearGradient>
		<path fill="none" stroke="url(#SVGID_17_)" stroke-width="13" stroke-miterlimit="10" d="M146.7,134.2c-27,0-54,0-81,0"/>
		
			<linearGradient id="SVGID_18_" gradientUnits="userSpaceOnUse" x1="31.3875" y1="678.4955" x2="208.5819" y2="678.4955" gradientTransform="matrix(1 0 0 -1 0 802)">
			<stop  offset="0" style="stop-color:#25CA95"/>
			<stop  offset="1" style="stop-color:#007492"/>
		</linearGradient>
		<path fill="none" stroke="url(#SVGID_18_)" stroke-width="13" stroke-miterlimit="10" d="M185.9,53.5c0.7-0.1,7.8-0.7,12.7,5
			c4.2,4.9,3.5,10.8,3.3,11.7c0,26.1,0,52.2,0,78.3c0,0.7,0.1,5.7-4,9.3c-3.6,3.2-7.8,3-8.7,3c-6.9,0-13.8,0-20.7,0
			c-0.1,9.3-0.2,18.7-0.3,28c-14.4-9.4-28.9-18.9-43.3-28.3c-23.7,0-47.3,0-71,0c-0.8,0.1-6.3,1-11-3c-5.1-4.3-4.7-10.7-4.7-11.3
			c0-24.9,0-49.8,0-74.7c-0.1-0.6-1.8-8.2,3.7-14c4.9-5.2,11.5-4.7,12.3-4.7C98.1,53.1,142,53.3,185.9,53.5z"/>
		
			<linearGradient id="SVGID_19_" gradientUnits="userSpaceOnUse" x1="104.2664" y1="778" x2="120.2352" y2="778" gradientTransform="matrix(1 0 0 -1 0 802)">
			<stop  offset="0" style="stop-color:#25CA95"/>
			<stop  offset="1" style="stop-color:#007492"/>
		</linearGradient>
		<rect x="110.8" y="22.5" fill="none" stroke="url(#SVGID_19_)" stroke-width="13" stroke-miterlimit="10" width="3" height="3"/>
		
			<linearGradient id="SVGID_20_" gradientUnits="userSpaceOnUse" x1="77.7664" y1="722.8" x2="93.7352" y2="722.8" gradientTransform="matrix(1 0 0 -1 0 802)">
			<stop  offset="0" style="stop-color:#25CA95"/>
			<stop  offset="1" style="stop-color:#007492"/>
		</linearGradient>
		<rect x="84.3" y="77.7" fill="none" stroke="url(#SVGID_20_)" stroke-width="13" stroke-miterlimit="10" width="3" height="3"/>
		
			<linearGradient id="SVGID_21_" gradientUnits="userSpaceOnUse" x1="139.1414" y1="544.9" x2="155.1102" y2="544.9" gradientTransform="matrix(1 0 0 -1 0 802)">
			<stop  offset="0" style="stop-color:#25CA95"/>
			<stop  offset="1" style="stop-color:#007492"/>
		</linearGradient>
		<rect x="145.6" y="255.6" fill="none" stroke="url(#SVGID_21_)" stroke-width="13" stroke-miterlimit="10" width="3" height="3"/>
		
			<linearGradient id="SVGID_22_" gradientUnits="userSpaceOnUse" x1="35.3914" y1="552.1" x2="51.3602" y2="552.1" gradientTransform="matrix(1 0 0 -1 0 802)">
			<stop  offset="0" style="stop-color:#25CA95"/>
			<stop  offset="1" style="stop-color:#007492"/>
		</linearGradient>
		<rect x="41.9" y="248.4" fill="none" stroke="url(#SVGID_22_)" stroke-width="13" stroke-miterlimit="10" width="3" height="3"/>
		
			<linearGradient id="SVGID_23_" gradientUnits="userSpaceOnUse" x1="398.7664" y1="531.9" x2="414.7352" y2="531.9" gradientTransform="matrix(1 0 0 -1 0 802)">
			<stop  offset="0" style="stop-color:#25CA95"/>
			<stop  offset="1" style="stop-color:#007492"/>
		</linearGradient>
		<rect x="405.3" y="268.6" fill="none" stroke="url(#SVGID_23_)" stroke-width="13" stroke-miterlimit="10" width="3" height="3"/>
		
			<linearGradient id="SVGID_24_" gradientUnits="userSpaceOnUse" x1="200.4766" y1="408.7" x2="216.4453" y2="408.7" gradientTransform="matrix(1 0 0 -1 0 802)">
			<stop  offset="0" style="stop-color:#25CA95"/>
			<stop  offset="1" style="stop-color:#007492"/>
		</linearGradient>
		<rect x="207" y="391.8" fill="none" stroke="url(#SVGID_24_)" stroke-width="13" stroke-miterlimit="10" width="3" height="3"/>
	</g>
</g>
</svg>
