<?xml version="1.0" encoding="utf-8"?>
<!-- Generator: Adobe Illustrator 18.1.1, SVG Export Plug-In . SVG Version: 6.00 Build 0)  -->
<svg version="1.1" id="Layer_3" xmlns="http://www.w3.org/2000/svg" xmlns:xlink="http://www.w3.org/1999/xlink" x="0px" y="0px"
	 viewBox="0 0 458.3 458.7" enable-background="new 0 0 458.3 458.7" xml:space="preserve">
<g id="Layer_5">
	<g>
		
			<linearGradient id="SVGID_1_" gradientUnits="userSpaceOnUse" x1="150.0173" y1="609.4825" x2="326.4619" y2="609.4825" gradientTransform="matrix(1 0 0 -1 0 802)">
			<stop  offset="0" style="stop-color:#25CA95"/>
			<stop  offset="1" style="stop-color:#007492"/>
		</linearGradient>
		<path fill="none" stroke="url(#SVGID_1_)" stroke-width="13" stroke-miterlimit="10" d="M302,207.6c10.3,1.2,18.1-6.6,18-13.3
			c-0.1-6.8-8.3-14.4-18.7-12.7c0-12.7,0-25.3,0-38c0,24.2,0,48.4,0,72.7c-0.8,5.8-4,22.3-18,36.3c-2.7,2.7-20.8,20.3-48.7,18.7
			c-29.4-1.7-45.6-23.4-48-26.7c-9.2-12.7-11.4-25.6-12-32c-0.1-22.9-0.2-45.8-0.3-68.7c0.2-2.3,1.6-13.8,11.7-22.3
			c9.9-8.5,21.3-8.1,23.7-8c-0.5,1.3-3.6,9.8,1,18.7c5,9.8,15.1,11.8,16.3,12c-3,4.5-10.5,14.3-24,20.7c-12.2,5.8-23.3,5.9-28.7,5.7
			c0,3.6,0,7.1,0,10.7c-10.6-0.8-18.4,7.8-17.7,15.3c0.6,6.9,8.5,13.5,18,12.3"/>
		
			<linearGradient id="SVGID_2_" gradientUnits="userSpaceOnUse" x1="200.4603" y1="679.597" x2="325.5503" y2="679.597" gradientTransform="matrix(1 0 0 -1 0 802)">
			<stop  offset="0" style="stop-color:#25CA95"/>
			<stop  offset="1" style="stop-color:#007492"/>
		</linearGradient>
		<path fill="none" stroke="url(#SVGID_2_)" stroke-width="13" stroke-miterlimit="10" d="M318,144c-29.1,0-58.2,0-87.3,0
			c-13,0.8-23.8-9.6-23.7-21.7c0.1-11.1,9.4-20.8,21.3-21.3c16.7-0.1,33.3-0.2,50-0.3c4.9,1,12.3,3.2,19.7,8.7
			C314.1,121.3,317.3,139.5,318,144z"/>
		
			<linearGradient id="SVGID_3_" gradientUnits="userSpaceOnUse" x1="326.6609" y1="475.0667" x2="438.943" y2="475.0667" gradientTransform="matrix(1 0 0 -1 0 802)">
			<stop  offset="0" style="stop-color:#25CA95"/>
			<stop  offset="1" style="stop-color:#007492"/>
		</linearGradient>
		<path fill="none" stroke="url(#SVGID_3_)" stroke-width="13" stroke-miterlimit="10" d="M326.7,301.6c11.1,0,22.2,0,33.3,0
			c0.5,0.8,4.5,7.4,12.3,8.3c6.6,0.8,13.1-2.6,16.7-8.7c7,0,14,0,21,0c4,1.4,11.8,5,17,13c4.3,6.6,4.8,13.2,5.3,19.7
			c0.6,7.9-0.4,14.5-1.3,18.7c-19.6,0-39.1,0-58.7,0c0.1-12.9,0.2-25.8,0.3-38.7c-0.1,12.9-0.2,25.8-0.3,38.7c-11.9,0-23.8,0-35.7,0
			"/>
		
			<linearGradient id="SVGID_4_" gradientUnits="userSpaceOnUse" x1="59.7738" y1="556.1216" x2="150.1261" y2="556.1216" gradientTransform="matrix(1 0 0 -1 0 802)">
			<stop  offset="0" style="stop-color:#25CA95"/>
			<stop  offset="1" style="stop-color:#007492"/>
		</linearGradient>
		<path fill="none" stroke="url(#SVGID_4_)" stroke-width="13" stroke-miterlimit="10" d="M104,192.3c20.5-0.7,35,8.4,39.7,11.7
			c0,19.3,0,38.7,0,58c-0.1,2.8-0.6,16.1-11.3,26.7c-11.5,11.2-25.9,10.8-29.3,10.7c-3.8-0.2-17.4-1-27.3-12.3
			c-8.6-9.8-9-21.2-9-24.3c-0.1-19-0.2-38-0.3-57C70.9,202.2,84.4,193,104,192.3z"/>
		
			<linearGradient id="SVGID_5_" gradientUnits="userSpaceOnUse" x1="61.8947" y1="568.7484" x2="146.1869" y2="568.7484" gradientTransform="matrix(1 0 0 -1 0 802)">
			<stop  offset="0" style="stop-color:#25CA95"/>
			<stop  offset="1" style="stop-color:#007492"/>
		</linearGradient>
		<path fill="none" stroke="url(#SVGID_5_)" stroke-width="13" stroke-miterlimit="10" d="M66.7,238c10.2-11,18.1-13.1,23.7-12.7
			c11.6,0.8,15.9,12.5,30,15.3c8.9,1.8,17.2-0.9,23-3.7"/>
		
			<linearGradient id="SVGID_6_" gradientUnits="userSpaceOnUse" x1="95.2928" y1="591.3167" x2="113.7741" y2="591.3167" gradientTransform="matrix(1 0 0 -1 0 802)">
			<stop  offset="0" style="stop-color:#25CA95"/>
			<stop  offset="1" style="stop-color:#007492"/>
		</linearGradient>
		<path fill="none" stroke="url(#SVGID_6_)" stroke-width="8" stroke-miterlimit="10" d="M104.7,202c0,5.8,0,11.6,0,17.3
			c0-2.9,0-5.8,0-8.7c3,0.1,6,0.2,9,0.3c-6.1,0-12.2,0-18.3,0"/>
		
			<linearGradient id="SVGID_7_" gradientUnits="userSpaceOnUse" x1="327.461" y1="547.5379" x2="418.0617" y2="547.5379" gradientTransform="matrix(1 0 0 -1 0 802)">
			<stop  offset="0" style="stop-color:#25CA95"/>
			<stop  offset="1" style="stop-color:#007492"/>
		</linearGradient>
		<path fill="none" stroke="url(#SVGID_7_)" stroke-width="13" stroke-miterlimit="10" d="M334,213.3c0,14.9,0,29.8,0,44.7
			c2.7,19.8,19.4,34.5,38.3,34.7c20.6,0.2,38.6-16.9,39.3-38.7c-0.1-14.8-0.2-29.6-0.3-44.3"/>
		
			<linearGradient id="SVGID_8_" gradientUnits="userSpaceOnUse" x1="306.4483" y1="566.9726" x2="437.1222" y2="566.9726" gradientTransform="matrix(1 0 0 -1 0 802)">
			<stop  offset="0" style="stop-color:#25CA95"/>
			<stop  offset="1" style="stop-color:#007492"/>
		</linearGradient>
		<path fill="none" stroke="url(#SVGID_8_)" stroke-width="13" stroke-miterlimit="10" d="M371.3,176c21.6-0.7,36.4,10.2,40.3,13.3
			c-0.1,6.1-0.2,12.2-0.3,18.3c3.9,2.8,11.2,8.8,15.7,19c9,20.6-1.3,39.9-2.3,41.7c-14,24.9-46.3,25.6-51.7,25.7
			c-5.7,0.1-38.8,0.7-53.3-24.3c-7.9-13.6-10.2-34.5,0.7-49c4.4-5.8,9.8-9.1,13.7-11c0-6.6,0-13.1,0-19.7
			C338.1,186.6,351.5,176.6,371.3,176z"/>
		
			<linearGradient id="SVGID_9_" gradientUnits="userSpaceOnUse" x1="333.2015" y1="579.1957" x2="413.7423" y2="579.1957" gradientTransform="matrix(1 0 0 -1 0 802)">
			<stop  offset="0" style="stop-color:#25CA95"/>
			<stop  offset="1" style="stop-color:#007492"/>
		</linearGradient>
		<path fill="none" stroke="url(#SVGID_9_)" stroke-width="13" stroke-miterlimit="10" d="M334,230c3.4,0.4,11,0.8,19.3-3
			c6.2-2.9,10.2-6.9,12.3-9.3c4.1,3.2,12.5,8.9,24.7,11c9.5,1.6,17.3,0.4,22-0.7"/>
		
			<linearGradient id="SVGID_10_" gradientUnits="userSpaceOnUse" x1="363.6261" y1="604.3167" x2="382.1074" y2="604.3167" gradientTransform="matrix(1 0 0 -1 0 802)">
			<stop  offset="0" style="stop-color:#25CA95"/>
			<stop  offset="1" style="stop-color:#007492"/>
		</linearGradient>
		<path fill="none" stroke="url(#SVGID_10_)" stroke-width="8" stroke-miterlimit="10" d="M373,189c0,5.8,0,11.6,0,17.3
			c0-2.9,0-5.8,0-8.7c3,0.1,6,0.2,9,0.3c-6.1,0-12.2,0-18.3,0"/>
		
			<linearGradient id="SVGID_11_" gradientUnits="userSpaceOnUse" x1="38.7477" y1="471.5549" x2="145.261" y2="471.5549" gradientTransform="matrix(1 0 0 -1 0 802)">
			<stop  offset="0" style="stop-color:#25CA95"/>
			<stop  offset="1" style="stop-color:#007492"/>
		</linearGradient>
		<path fill="none" stroke="url(#SVGID_11_)" stroke-width="13" stroke-miterlimit="10" d="M145.3,309.6c-8.1,0-16.2,0-24.3,0
			c-4.9,4.7-9.8,9.3-14.7,14c-5.2-4.9-10.4-9.8-15.7-14.7c-8.1,0-16.2,0-24.3,0c-3.3,1.3-10,4.6-15,11.7c-9.6,13.5-5,29.3-4.3,31.3
			c19.6-0.1,39.1-0.2,58.7-0.3c0-9.7,0-19.3,0-29c0,9.7,0,19.3,0,29c11.9,0,23.8,0,35.7,0"/>
		
			<linearGradient id="SVGID_12_" gradientUnits="userSpaceOnUse" x1="60.961" y1="689.9166" x2="155.6609" y2="689.9166" gradientTransform="matrix(1 0 0 -1 0 802)">
			<stop  offset="0" style="stop-color:#25CA95"/>
			<stop  offset="1" style="stop-color:#007492"/>
		</linearGradient>
		<path fill="none" stroke="url(#SVGID_12_)" stroke-width="10" stroke-miterlimit="10" d="M98,70c0,10.7,0,21.3,0,32
			c-10.7-0.1-21.3-0.2-32-0.3c0,6.9,0,13.8,0,20.7c10.4,0,20.9,0,31.3,0c0,10.6,0,21.1,0,31.7c7.2,0,14.4,0,21.7,0
			c0-10.4,0-20.9,0-31.3c10.6,0,21.1,0,31.7,0c0-6.6,0-13.1,0-19.7c-10.6-0.1-21.1-0.2-31.7-0.3c0-10.9,0-21.8,0-32.7
			C112,70,105,70,98,70z"/>
		
			<linearGradient id="SVGID_13_" gradientUnits="userSpaceOnUse" x1="162.961" y1="481.8167" x2="213.9613" y2="481.8167" gradientTransform="matrix(1 0 0 -1 0 802)">
			<stop  offset="0" style="stop-color:#25CA95"/>
			<stop  offset="1" style="stop-color:#007492"/>
		</linearGradient>
		<path fill="none" stroke="url(#SVGID_13_)" stroke-width="12" stroke-miterlimit="10" d="M183.3,348.6c-4.8,0-9.6,0-14.3,0
			c0-9.7,0-19.3,0-29c0-1.2,0.1-9.6,7-15.3c5-4.1,10.6-4.3,12.3-4.3c0-4.8,0-4.8,0-14.3c0,9.6,0,9.6,0,14.3c1.9,0,6.6,0.2,11.3,3.3
			c6.6,4.5,8.1,11.6,8.3,13c0,10.7,0,21.3,0,32c-4.7,0-9.3,0-14,0"/>
		
			<linearGradient id="SVGID_14_" gradientUnits="userSpaceOnUse" x1="286.2928" y1="498.7167" x2="298.2928" y2="498.7167" gradientTransform="matrix(1 0 0 -1 0 802)">
			<stop  offset="0" style="stop-color:#25CA95"/>
			<stop  offset="1" style="stop-color:#007492"/>
		</linearGradient>
		<path fill="none" stroke="url(#SVGID_14_)" stroke-width="12" stroke-miterlimit="10" d="M292.3,285.6c0,11.8,0,23.6,0,35.3"/>
		
			<linearGradient id="SVGID_15_" gradientUnits="userSpaceOnUse" x1="271.6261" y1="466.5667" x2="313.826" y2="466.5667" gradientTransform="matrix(1 0 0 -1 0 802)">
			<stop  offset="0" style="stop-color:#25CA95"/>
			<stop  offset="1" style="stop-color:#007492"/>
		</linearGradient>
		
			<ellipse fill="none" stroke="url(#SVGID_15_)" stroke-width="12" stroke-miterlimit="10" cx="292.7" cy="335.4" rx="15.1" ry="15.6"/>
		
			<linearGradient id="SVGID_16_" gradientUnits="userSpaceOnUse" x1="135.3048" y1="476.9082" x2="342.6634" y2="476.9082" gradientTransform="matrix(1 0 0 -1 0 802)">
			<stop  offset="0" style="stop-color:#25CA95"/>
			<stop  offset="1" style="stop-color:#007492"/>
		</linearGradient>
		<path fill="none" stroke="url(#SVGID_16_)" stroke-width="13" stroke-miterlimit="10" d="M238,377c0-24,0-48,0-72
			c-6.9-6.6-13.8-13.1-20.7-19.7c0-5.4,0-10.9,0-16.3c0,5.4,0,10.9,0,16.3c-12.8,0-25.6,0-38.3,0c-19.6,5.1-27.5,15.8-30,19.7
			c-5.8,9.1-6.3,18.9-7,38.3c-0.5,13.6,0.3,24.8,1,32.3c64.1,0.1,128.2,0.2,192.3,0.3c0.7-8.8,1.2-21.1,0.7-36
			c-0.8-22.3-3.4-28.1-4.7-30.7c-2.3-4.7-9.3-16.3-29-23.7c-13.6,0-27.1,0-40.7,0c-0.7-5.7-1.3-11.3-2-17c0.3,5.6,0.7,11.1,1,16.7
			c-7.3,7-14.7,14-22,21"/>
		
			<linearGradient id="SVGID_17_" gradientUnits="userSpaceOnUse" x1="75.5484" y1="543.808" x2="100.2087" y2="543.808" gradientTransform="matrix(1 0 0 -1 0 802)">
			<stop  offset="0" style="stop-color:#25CA95"/>
			<stop  offset="1" style="stop-color:#007492"/>
		</linearGradient>
		<path fill="none" stroke="url(#SVGID_17_)" stroke-width="8" stroke-miterlimit="10" d="M79.7,250.8c-0.8,6.5,4.2,11.4,8.7,11.2
			c4.2-0.2,8.5-5,7.8-11"/>
		
			<linearGradient id="SVGID_18_" gradientUnits="userSpaceOnUse" x1="250.9803" y1="476.0167" x2="268.3553" y2="476.0167" gradientTransform="matrix(1 0 0 -1 0 802)">
			<stop  offset="0" style="stop-color:#25CA95"/>
			<stop  offset="1" style="stop-color:#007492"/>
		</linearGradient>
		
			<linearGradient id="SVGID_19_" gradientUnits="userSpaceOnUse" x1="250.4803" y1="476.0167" x2="268.8553" y2="476.0167" gradientTransform="matrix(1 0 0 -1 0 802)">
			<stop  offset="0" style="stop-color:#25CA95"/>
			<stop  offset="1" style="stop-color:#007492"/>
		</linearGradient>
		<path fill="url(#SVGID_18_)" stroke="url(#SVGID_19_)" stroke-miterlimit="10" d="M263.6,331.1h-7.9c-2.6,0-4.8-2.1-4.8-4.8v-0.7
			c0-2.6,2.1-4.8,4.8-4.8h7.9c2.6,0,4.8,2.1,4.8,4.8v0.7C268.4,329,266.3,331.1,263.6,331.1z"/>
		
			<linearGradient id="SVGID_20_" gradientUnits="userSpaceOnUse" x1="250.9803" y1="460.0167" x2="268.3553" y2="460.0167" gradientTransform="matrix(1 0 0 -1 0 802)">
			<stop  offset="0" style="stop-color:#25CA95"/>
			<stop  offset="1" style="stop-color:#007492"/>
		</linearGradient>
		
			<linearGradient id="SVGID_21_" gradientUnits="userSpaceOnUse" x1="250.4803" y1="460.0167" x2="268.8553" y2="460.0167" gradientTransform="matrix(1 0 0 -1 0 802)">
			<stop  offset="0" style="stop-color:#25CA95"/>
			<stop  offset="1" style="stop-color:#007492"/>
		</linearGradient>
		<path fill="url(#SVGID_20_)" stroke="url(#SVGID_21_)" stroke-miterlimit="10" d="M263.6,347.1h-7.9c-2.6,0-4.8-2.1-4.8-4.8v-0.7
			c0-2.6,2.1-4.8,4.8-4.8h7.9c2.6,0,4.8,2.1,4.8,4.8v0.7C268.4,345,266.3,347.1,263.6,347.1z"/>
		
			<linearGradient id="SVGID_22_" gradientUnits="userSpaceOnUse" x1="108.734" y1="542.708" x2="133.3943" y2="542.708" gradientTransform="matrix(1 0 0 -1 0 802)">
			<stop  offset="0" style="stop-color:#25CA95"/>
			<stop  offset="1" style="stop-color:#007492"/>
		</linearGradient>
		<path fill="none" stroke="url(#SVGID_22_)" stroke-width="8" stroke-miterlimit="10" d="M112.9,251.9c-0.8,6.5,4.2,11.4,8.7,11.2
			c4.2-0.2,8.5-5,7.8-11"/>
		
			<linearGradient id="SVGID_23_" gradientUnits="userSpaceOnUse" x1="376.8297" y1="552.208" x2="401.49" y2="552.208" gradientTransform="matrix(1 0 0 -1 0 802)">
			<stop  offset="0" style="stop-color:#25CA95"/>
			<stop  offset="1" style="stop-color:#007492"/>
		</linearGradient>
		<path fill="none" stroke="url(#SVGID_23_)" stroke-width="8" stroke-miterlimit="10" d="M380.9,242.4c-0.8,6.5,4.2,11.4,8.7,11.2
			c4.2-0.2,8.5-5,7.8-11"/>
		
			<linearGradient id="SVGID_24_" gradientUnits="userSpaceOnUse" x1="342.976" y1="552.208" x2="367.6363" y2="552.208" gradientTransform="matrix(1 0 0 -1 0 802)">
			<stop  offset="0" style="stop-color:#25CA95"/>
			<stop  offset="1" style="stop-color:#007492"/>
		</linearGradient>
		<path fill="none" stroke="url(#SVGID_24_)" stroke-width="8" stroke-miterlimit="10" d="M347.1,242.4c-0.8,6.5,4.2,11.4,8.7,11.2
			c4.2-0.2,8.5-5,7.8-11"/>
		
			<linearGradient id="SVGID_25_" gradientUnits="userSpaceOnUse" x1="248.1354" y1="608.3073" x2="282.3866" y2="608.3073" gradientTransform="matrix(1 0 0 -1 0 802)">
			<stop  offset="0" style="stop-color:#25CA95"/>
			<stop  offset="1" style="stop-color:#007492"/>
		</linearGradient>
		<path fill="none" stroke="url(#SVGID_25_)" stroke-width="10" stroke-miterlimit="10" d="M253.3,184.1c-1.1,8,5.2,14.8,12,14.8
			s13.1-6.8,12-14.8"/>
		
			<linearGradient id="SVGID_26_" gradientUnits="userSpaceOnUse" x1="193.474" y1="608.3073" x2="227.7253" y2="608.3073" gradientTransform="matrix(1 0 0 -1 0 802)">
			<stop  offset="0" style="stop-color:#25CA95"/>
			<stop  offset="1" style="stop-color:#007492"/>
		</linearGradient>
		<path fill="none" stroke="url(#SVGID_26_)" stroke-width="10" stroke-miterlimit="10" d="M198.6,184.1c-1.1,8,5.2,14.8,12,14.8
			s13.1-6.8,12-14.8"/>
	</g>
</g>
</svg>
