<?xml version="1.0" encoding="utf-8"?>
<svg version="1.1" xmlns="http://www.w3.org/2000/svg" xmlns:xlink="http://www.w3.org/1999/xlink" x="0px" y="0px"
	 viewBox="0 0 1280 800" enable-background="new 0 0 1280 800" xml:space="preserve">
<g id="Layer_2">
	<g>
		<linearGradient id="SVGID_1_" gradientUnits="userSpaceOnUse" x1="140.982" y1="78.1454" x2="243.1785" y2="78.1454">
			<stop  offset="0" style="stop-color:#25CA95"/>
			<stop  offset="1" style="stop-color:#007492"/>
		</linearGradient>
		<path fill="none" stroke="url(#SVGID_1_)" stroke-width="13" stroke-miterlimit="10" d="M141.1,57.4c23.1-0.6,43.6-0.4,61,0.2
			c10.1,0.3,21.9,0.8,28,8.8c3.2,4.2,5.3,11.1,6,16.7c0.4,2.8,0.4,5.9,0.5,12.2c0.1,4.3,0,7.9,0,10.3"/>
		<linearGradient id="SVGID_2_" gradientUnits="userSpaceOnUse" x1="210.2786" y1="187.5842" x2="336.2739" y2="187.5842">
			<stop  offset="0" style="stop-color:#25CA95"/>
			<stop  offset="1" style="stop-color:#007492"/>
		</linearGradient>
		<path fill="none" stroke="url(#SVGID_2_)" stroke-width="13" stroke-miterlimit="10" d="M210.3,179.9c27.4,0.1,54.9,0.2,82.3,0.3
			c5.3,0.7,12.1,2,19.7,5c8.7,3.4,15.4,7.8,20,11.3"/>
		<linearGradient id="SVGID_3_" gradientUnits="userSpaceOnUse" x1="274.1382" y1="361.6188" x2="324.2713" y2="361.6188">
			<stop  offset="0" style="stop-color:#25CA95"/>
			<stop  offset="1" style="stop-color:#007492"/>
		</linearGradient>
		<path fill="none" stroke="url(#SVGID_3_)" stroke-width="13" stroke-miterlimit="10" d="M318.1,269.6c-5.5,15.7-11,31.3-16.5,47
			c-9.2,0-18.3,0-27.5,0c5.7,0,11.3,0,17,0c-2.3,20.7-4.7,41.3-7,62c6.8,25.2,13.7,50.3,20.5,75.5"/>
		<linearGradient id="SVGID_4_" gradientUnits="userSpaceOnUse" x1="236.8902" y1="341.2863" x2="393.9913" y2="341.2863">
			<stop  offset="0" style="stop-color:#25CA95"/>
			<stop  offset="1" style="stop-color:#007492"/>
		</linearGradient>
		<path fill="none" stroke="url(#SVGID_4_)" stroke-width="13" stroke-miterlimit="10" d="M387.4,262.8c0,27.5,0,55,0,82.5
			c0.2,3.2,0.2,7.9-0.5,13.5c-0.9,7.3-2.9,23-15.3,36.5c-2.1,2.3-9.6,10.1-22,14.8c-4.7,1.8-11.7,3.7-31,3
			c-25-0.9-37.5-1.3-47.5-7.3c-17.7-10.6-24.3-28.6-25-30.5c-1.8-5.2-2.5-10.2-2.5-10.3c-0.1-3.3-0.2-6.7-0.3-10"/>
		<linearGradient id="SVGID_5_" gradientUnits="userSpaceOnUse" x1="325.1288" y1="209.8979" x2="448.1532" y2="209.8979">
			<stop  offset="0" style="stop-color:#25CA95"/>
			<stop  offset="1" style="stop-color:#007492"/>
		</linearGradient>
		<path fill="none" stroke="url(#SVGID_5_)" stroke-width="13" stroke-miterlimit="10" d="M331.6,178.6c-0.6,31.3,25.3,57.1,56,56.5
			c30-0.5,54.7-26.1,54-56.8"/>
		<linearGradient id="SVGID_6_" gradientUnits="userSpaceOnUse" x1="222.6382" y1="346.4971" x2="264.3882" y2="346.4971">
			<stop  offset="0" style="stop-color:#25CA95"/>
			<stop  offset="1" style="stop-color:#007492"/>
		</linearGradient>
		<path fill="none" stroke="url(#SVGID_6_)" stroke-width="13" stroke-miterlimit="10" d="M229.1,327.6c0,10.4,0,20.8,0,31.3
			c9.6-0.1,19.2-0.2,28.8-0.3c0-10.3,0-20.7,0-31"/>
		<linearGradient id="SVGID_7_" gradientUnits="userSpaceOnUse" x1="196.1382" y1="289.2188" x2="290.3882" y2="289.2188">
			<stop  offset="0" style="stop-color:#25CA95"/>
			<stop  offset="1" style="stop-color:#007492"/>
		</linearGradient>
		
			<ellipse fill="none" stroke="url(#SVGID_7_)" stroke-width="13" stroke-miterlimit="10" cx="243.3" cy="289.2" rx="40.6" ry="41.1"/>
		<linearGradient id="SVGID_8_" gradientUnits="userSpaceOnUse" x1="222.6382" y1="289.5938" x2="264.3882" y2="289.5938">
			<stop  offset="0" style="stop-color:#25CA95"/>
			<stop  offset="1" style="stop-color:#007492"/>
		</linearGradient>
		
			<ellipse fill="none" stroke="url(#SVGID_8_)" stroke-width="13" stroke-miterlimit="10" cx="243.5" cy="289.6" rx="14.4" ry="14.5"/>
		<linearGradient id="SVGID_9_" gradientUnits="userSpaceOnUse" x1="69.5584" y1="323.5739" x2="362.1302" y2="323.5739">
			<stop  offset="0" style="stop-color:#25CA95"/>
			<stop  offset="1" style="stop-color:#007492"/>
		</linearGradient>
		<path fill="none" stroke="url(#SVGID_9_)" stroke-width="13" stroke-miterlimit="10" d="M355.6,251.6c-3.3,67.3-6.7,134.7-10,202
			c-86.2,0-172.3,0-258.5,0c-6.4-100.5-10.1-174.9-11-200.5c-0.2-5.2-0.5-16.5,4.5-29.5c5.8-15.2,16.1-25.4,23.5-31.5"/>
		<linearGradient id="SVGID_10_" gradientUnits="userSpaceOnUse" x1="325.1382" y1="194.4376" x2="448.1382" y2="194.4376">
			<stop  offset="0" style="stop-color:#25CA95"/>
			<stop  offset="1" style="stop-color:#007492"/>
		</linearGradient>
		<path fill="none" stroke="url(#SVGID_10_)" stroke-width="13" stroke-miterlimit="10" d="M359.4,119.7c0,13.1,0,26.3,0,39.4
			c0-6.6,0-13.2,0-19.8c-7.2,0-14.4,0-21.6,0c-1.5,0.4-3.3,1.1-4.6,2.8c-1.4,1.7-1.5,3.8-1.5,4.5c0,20.8,0,41.7,0,62.5
			c0,12.9,5.4,23.6,14.7,34.2c2.7,3.1,17.3,19.7,41.3,19.7c1.3,0,24.3-0.5,40.3-18.7c12-13.7,13.4-29.1,13.7-34
			c0-21.6,0-43.1,0-64.7c0-0.6-0.2-2.5-1.6-4.1c-2-2.3-5-2.2-5.4-2.2c-6.8,0-13.6,0-20.4,0c0-6.6,0-13.2,0-19.8
			c0,13.2,0.1,26.3,0.1,39.5"/>
		<linearGradient id="SVGID_11_" gradientUnits="userSpaceOnUse" x1="107.5314" y1="360.5718" x2="188.1382" y2="360.5718">
			<stop  offset="0" style="stop-color:#25CA95"/>
			<stop  offset="1" style="stop-color:#007492"/>
		</linearGradient>
		<path fill="none" stroke="url(#SVGID_11_)" stroke-width="13" stroke-miterlimit="10" d="M113.6,269.1c5.8,16,11.7,32,17.5,48
			c19,0,38,0,57,0c-16,0-32,0-48,0c2.5,19.7,5,39.3,7.5,59c-6.8,25.5-13.7,51-20.5,76.5"/>
		<linearGradient id="SVGID_12_" gradientUnits="userSpaceOnUse" x1="224.3809" y1="220.3084" x2="283.6382" y2="220.3084">
			<stop  offset="0" style="stop-color:#25CA95"/>
			<stop  offset="1" style="stop-color:#007492"/>
		</linearGradient>
		<path fill="none" stroke="url(#SVGID_12_)" stroke-width="13" stroke-miterlimit="10" d="M283.6,214.1c-13.7,0-27.3,0-41,0
			c-4.5,4.8-9,9.7-13.5,14.5"/>
		<linearGradient id="SVGID_13_" gradientUnits="userSpaceOnUse" x1="45.6461" y1="364.5938" x2="64.6304" y2="364.5938">
			<stop  offset="0" style="stop-color:#25CA95"/>
			<stop  offset="1" style="stop-color:#007492"/>
		</linearGradient>
		<path fill="none" stroke="url(#SVGID_13_)" stroke-width="13" stroke-miterlimit="10" d="M52.1,303.6c2,40.7,4,81.3,6,122"/>
		<linearGradient id="SVGID_14_" gradientUnits="userSpaceOnUse" x1="382.5511" y1="373.2681" x2="421.2919" y2="373.2681">
			<stop  offset="0" style="stop-color:#25CA95"/>
			<stop  offset="1" style="stop-color:#007492"/>
		</linearGradient>
		<path fill="none" stroke="url(#SVGID_14_)" stroke-width="13" stroke-miterlimit="10" d="M413.6,324.1c0.8,6.8,1.5,16,1,27
			c-0.3,6.9-0.7,17.1-3.5,27.5c-2.2,8.2-7.8,23.9-24,40"/>
		<linearGradient id="SVGID_15_" gradientUnits="userSpaceOnUse" x1="114.1382" y1="111.5938" x2="181.1382" y2="111.5938">
			<stop  offset="0" style="stop-color:#25CA95"/>
			<stop  offset="1" style="stop-color:#007492"/>
		</linearGradient>
		<path fill="none" stroke="url(#SVGID_15_)" stroke-width="13" stroke-miterlimit="10" d="M114.1,111.6c22.3,0,44.7,0,67,0"/>
		<linearGradient id="SVGID_16_" gradientUnits="userSpaceOnUse" x1="72.6382" y1="139.0938" x2="181.6382" y2="139.0938">
			<stop  offset="0" style="stop-color:#25CA95"/>
			<stop  offset="1" style="stop-color:#007492"/>
		</linearGradient>
		<path fill="none" stroke="url(#SVGID_16_)" stroke-width="13" stroke-miterlimit="10" d="M72.6,139.1c36.3,0,72.7,0,109,0"/>
		<linearGradient id="SVGID_17_" gradientUnits="userSpaceOnUse" x1="73.1382" y1="166.5938" x2="154.1382" y2="166.5938">
			<stop  offset="0" style="stop-color:#25CA95"/>
			<stop  offset="1" style="stop-color:#007492"/>
		</linearGradient>
		<path fill="none" stroke="url(#SVGID_17_)" stroke-width="13" stroke-miterlimit="10" d="M154.1,166.6c-27,0-54,0-81,0"/>
		<linearGradient id="SVGID_18_" gradientUnits="userSpaceOnUse" x1="38.7914" y1="155.9528" x2="215.9373" y2="155.9528">
			<stop  offset="0" style="stop-color:#25CA95"/>
			<stop  offset="1" style="stop-color:#007492"/>
		</linearGradient>
		<path fill="none" stroke="url(#SVGID_18_)" stroke-width="13" stroke-miterlimit="10" d="M193.3,85.9c0.7-0.1,7.8-0.7,12.7,5
			c4.2,4.9,3.5,10.8,3.3,11.7c0,26.1,0,52.2,0,78.3c0,0.7,0.1,5.7-4,9.3c-3.6,3.2-7.8,3-8.7,3c-6.9,0-13.8,0-20.7,0
			c-0.1,9.3-0.2,18.7-0.3,28c-14.4-9.4-28.9-18.9-43.3-28.3c-23.7,0-47.3,0-71,0c-0.8,0.1-6.3,1-11-3c-5.1-4.3-4.7-10.7-4.7-11.3
			c0-24.9,0-49.8,0-74.7c-0.1-0.6-1.8-8.2,3.7-14c4.9-5.2,11.5-4.7,12.3-4.7C105.5,85.5,149.4,85.7,193.3,85.9z"/>
		<linearGradient id="SVGID_19_" gradientUnits="userSpaceOnUse" x1="111.6538" y1="56.4063" x2="127.6226" y2="56.4063">
			<stop  offset="0" style="stop-color:#25CA95"/>
			<stop  offset="1" style="stop-color:#007492"/>
		</linearGradient>
		<rect x="118.2" y="54.9" fill="none" stroke="url(#SVGID_19_)" stroke-width="13" stroke-miterlimit="10" width="3" height="3"/>
		<linearGradient id="SVGID_20_" gradientUnits="userSpaceOnUse" x1="85.1538" y1="111.5938" x2="101.1226" y2="111.5938">
			<stop  offset="0" style="stop-color:#25CA95"/>
			<stop  offset="1" style="stop-color:#007492"/>
		</linearGradient>
		<rect x="91.7" y="110.1" fill="none" stroke="url(#SVGID_20_)" stroke-width="13" stroke-miterlimit="10" width="3" height="3"/>
		<linearGradient id="SVGID_21_" gradientUnits="userSpaceOnUse" x1="146.5288" y1="289.5313" x2="162.4976" y2="289.5313">
			<stop  offset="0" style="stop-color:#25CA95"/>
			<stop  offset="1" style="stop-color:#007492"/>
		</linearGradient>
		<rect x="153" y="288" fill="none" stroke="url(#SVGID_21_)" stroke-width="13" stroke-miterlimit="10" width="3" height="3"/>
		<linearGradient id="SVGID_22_" gradientUnits="userSpaceOnUse" x1="42.7788" y1="282.3438" x2="58.7476" y2="282.3438">
			<stop  offset="0" style="stop-color:#25CA95"/>
			<stop  offset="1" style="stop-color:#007492"/>
		</linearGradient>
		<rect x="49.3" y="280.8" fill="none" stroke="url(#SVGID_22_)" stroke-width="13" stroke-miterlimit="10" width="3" height="3"/>
		<linearGradient id="SVGID_23_" gradientUnits="userSpaceOnUse" x1="406.1538" y1="302.5313" x2="422.1226" y2="302.5313">
			<stop  offset="0" style="stop-color:#25CA95"/>
			<stop  offset="1" style="stop-color:#007492"/>
		</linearGradient>
		<rect x="412.7" y="301" fill="none" stroke="url(#SVGID_23_)" stroke-width="13" stroke-miterlimit="10" width="3" height="3"/>
		<linearGradient id="SVGID_24_" gradientUnits="userSpaceOnUse" x1="207.864" y1="425.6563" x2="223.8327" y2="425.6563">
			<stop  offset="0" style="stop-color:#25CA95"/>
			<stop  offset="1" style="stop-color:#007492"/>
		</linearGradient>
		<rect x="214.4" y="424.2" fill="none" stroke="url(#SVGID_24_)" stroke-width="13" stroke-miterlimit="10" width="3" height="3"/>
	</g>
</g>
<g id="Layer_5">
	<g display="inline">
		<linearGradient id="SVGID_25_" gradientUnits="userSpaceOnUse" x1="534.021" y1="577.7114" x2="710.3997" y2="577.7114">
			<stop  offset="0" style="stop-color:#25CA95"/>
			<stop  offset="1" style="stop-color:#007492"/>
		</linearGradient>
		<path fill="none" stroke="url(#SVGID_25_)" stroke-width="13" stroke-miterlimit="10" d="M685.9,592.8c10.3,1.2,18.1-6.6,18-13.3
			c-0.1-6.8-8.3-14.4-18.7-12.7c0-12.7,0-25.3,0-38c0,24.2,0,48.4,0,72.7c-0.8,5.8-4,22.3-18,36.3c-2.7,2.7-20.8,20.3-48.7,18.7
			c-29.4-1.7-45.6-23.4-48-26.7c-9.2-12.7-11.4-25.6-12-32c-0.1-22.9-0.2-45.8-0.3-68.7c0.2-2.3,1.6-13.8,11.7-22.3
			c9.9-8.5,21.3-8.1,23.7-8c-0.5,1.3-3.6,9.8,1,18.7c5,9.8,15.1,11.8,16.3,12c-3,4.5-10.5,14.3-24,20.7c-12.2,5.8-23.3,5.9-28.7,5.7
			c0,3.6,0,7.1,0,10.7c-10.6-0.8-18.4,7.8-17.7,15.3c0.6,6.9,8.5,13.5,18,12.3"/>
		<linearGradient id="SVGID_26_" gradientUnits="userSpaceOnUse" x1="584.3977" y1="507.5332" x2="709.4254" y2="507.5332">
			<stop  offset="0" style="stop-color:#25CA95"/>
			<stop  offset="1" style="stop-color:#007492"/>
		</linearGradient>
		<path fill="none" stroke="url(#SVGID_26_)" stroke-width="13" stroke-miterlimit="10" d="M701.9,529.2c-29.1,0-58.2,0-87.3,0
			c-13,0.8-23.8-9.6-23.7-21.7c0.1-11.1,9.4-20.8,21.3-21.3c16.7-0.1,33.3-0.2,50-0.3c4.9,1,12.3,3.2,19.7,8.7
			C698,506.5,701.2,524.7,701.9,529.2z"/>
		<linearGradient id="SVGID_27_" gradientUnits="userSpaceOnUse" x1="710.5651" y1="712.1794" x2="822.9293" y2="712.1794">
			<stop  offset="0" style="stop-color:#25CA95"/>
			<stop  offset="1" style="stop-color:#007492"/>
		</linearGradient>
		<path fill="none" stroke="url(#SVGID_27_)" stroke-width="13" stroke-miterlimit="10" d="M710.6,686.8c11.1,0,22.2,0,33.3,0
			c0.5,0.8,4.5,7.4,12.3,8.3c6.6,0.8,13.1-2.6,16.7-8.7c7,0,14,0,21,0c4,1.4,11.8,5,17,13c4.3,6.6,4.8,13.2,5.3,19.7
			c0.6,7.9-0.4,14.5-1.3,18.7c-19.6,0-39.1,0-58.7,0c0.1-12.9,0.2-25.8,0.3-38.7c-0.1,12.9-0.2,25.8-0.3,38.7c-11.9,0-23.8,0-35.7,0
			"/>
		<linearGradient id="SVGID_28_" gradientUnits="userSpaceOnUse" x1="443.7128" y1="631.019" x2="534.0651" y2="631.019">
			<stop  offset="0" style="stop-color:#25CA95"/>
			<stop  offset="1" style="stop-color:#007492"/>
		</linearGradient>
		<path fill="none" stroke="url(#SVGID_28_)" stroke-width="13" stroke-miterlimit="10" d="M487.9,577.5c20.5-0.7,35,8.4,39.7,11.7
			c0,19.3,0,38.7,0,58c-0.1,2.8-0.6,16.1-11.3,26.7c-11.5,11.2-25.9,10.8-29.3,10.7c-3.8-0.2-17.4-1-27.3-12.3
			c-8.6-9.8-9-21.2-9-24.3c-0.1-19-0.2-38-0.3-57C454.8,587.4,468.3,578.2,487.9,577.5z"/>
		<linearGradient id="SVGID_29_" gradientUnits="userSpaceOnUse" x1="445.7866" y1="618.4481" x2="530.0299" y2="618.4481">
			<stop  offset="0" style="stop-color:#25CA95"/>
			<stop  offset="1" style="stop-color:#007492"/>
		</linearGradient>
		<path fill="none" stroke="url(#SVGID_29_)" stroke-width="13" stroke-miterlimit="10" d="M450.6,623.2
			c10.2-11,18.1-13.1,23.7-12.7c11.6,0.8,15.9,12.5,30,15.3c8.9,1.8,17.2-0.9,23-3.7"/>
		<linearGradient id="SVGID_30_" gradientUnits="userSpaceOnUse" x1="479.2318" y1="595.8461" x2="497.7131" y2="595.8461">
			<stop  offset="0" style="stop-color:#25CA95"/>
			<stop  offset="1" style="stop-color:#007492"/>
		</linearGradient>
		<path fill="none" stroke="url(#SVGID_30_)" stroke-width="8" stroke-miterlimit="10" d="M488.6,587.2c0,5.8,0,11.6,0,17.3
			c0-2.9,0-5.8,0-8.7c3,0.1,6,0.2,9,0.3c-6.1,0-12.2,0-18.3,0"/>
		<linearGradient id="SVGID_31_" gradientUnits="userSpaceOnUse" x1="711.3984" y1="639.5723" x2="802.0659" y2="639.5723">
			<stop  offset="0" style="stop-color:#25CA95"/>
			<stop  offset="1" style="stop-color:#007492"/>
		</linearGradient>
		<path fill="none" stroke="url(#SVGID_31_)" stroke-width="13" stroke-miterlimit="10" d="M717.9,598.5c0,14.9,0,29.8,0,44.7
			c2.7,19.8,19.4,34.5,38.3,34.7c20.6,0.2,38.6-16.9,39.3-38.7c-0.1-14.8-0.2-29.6-0.3-44.3"/>
		<linearGradient id="SVGID_32_" gradientUnits="userSpaceOnUse" x1="690.3401" y1="620.1765" x2="821.0614" y2="620.1765">
			<stop  offset="0" style="stop-color:#25CA95"/>
			<stop  offset="1" style="stop-color:#007492"/>
		</linearGradient>
		<path fill="none" stroke="url(#SVGID_32_)" stroke-width="13" stroke-miterlimit="10" d="M755.2,561.2
			c21.6-0.7,36.4,10.2,40.3,13.3c-0.1,6.1-0.2,12.2-0.3,18.3c3.9,2.8,11.2,8.8,15.7,19c9,20.6-1.3,39.9-2.3,41.7
			c-14,24.9-46.3,25.6-51.7,25.7c-5.7,0.1-38.8,0.7-53.3-24.3c-7.9-13.6-10.2-34.5,0.7-49c4.4-5.8,9.8-9.1,13.7-11
			c0-6.6,0-13.1,0-19.7C722,571.8,735.4,561.8,755.2,561.2z"/>
		<linearGradient id="SVGID_33_" gradientUnits="userSpaceOnUse" x1="717.1356" y1="607.9105" x2="797.7162" y2="607.9105">
			<stop  offset="0" style="stop-color:#25CA95"/>
			<stop  offset="1" style="stop-color:#007492"/>
		</linearGradient>
		<path fill="none" stroke="url(#SVGID_33_)" stroke-width="13" stroke-miterlimit="10" d="M717.9,615.2c3.4,0.4,11,0.8,19.3-3
			c6.2-2.9,10.2-6.9,12.3-9.3c4.1,3.2,12.5,8.9,24.7,11c9.5,1.6,17.3,0.4,22-0.7"/>
		<linearGradient id="SVGID_34_" gradientUnits="userSpaceOnUse" x1="747.5651" y1="582.8461" x2="766.0464" y2="582.8461">
			<stop  offset="0" style="stop-color:#25CA95"/>
			<stop  offset="1" style="stop-color:#007492"/>
		</linearGradient>
		<path fill="none" stroke="url(#SVGID_34_)" stroke-width="8" stroke-miterlimit="10" d="M756.9,574.2c0,5.8,0,11.6,0,17.3
			c0-2.9,0-5.8,0-8.7c3,0.1,6,0.2,9,0.3c-6.1,0-12.2,0-18.3,0"/>
		<linearGradient id="SVGID_35_" gradientUnits="userSpaceOnUse" x1="422.72" y1="715.6931" x2="529.2318" y2="715.6931">
			<stop  offset="0" style="stop-color:#25CA95"/>
			<stop  offset="1" style="stop-color:#007492"/>
		</linearGradient>
		<path fill="none" stroke="url(#SVGID_35_)" stroke-width="13" stroke-miterlimit="10" d="M529.2,694.8c-8.1,0-16.2,0-24.3,0
			c-4.9,4.7-9.8,9.3-14.7,14c-5.2-4.9-10.4-9.8-15.7-14.7c-8.1,0-16.2,0-24.3,0c-3.3,1.3-10,4.6-15,11.7c-9.6,13.5-5,29.3-4.3,31.3
			c19.6-0.1,39.1-0.2,58.7-0.3c0-9.7,0-19.3,0-29c0,9.7,0,19.3,0,29c11.9,0,23.8,0,35.7,0"/>
		<linearGradient id="SVGID_36_" gradientUnits="userSpaceOnUse" x1="444.8984" y1="497.1794" x2="539.5651" y2="497.1794">
			<stop  offset="0" style="stop-color:#25CA95"/>
			<stop  offset="1" style="stop-color:#007492"/>
		</linearGradient>
		<path fill="none" stroke="url(#SVGID_36_)" stroke-width="10" stroke-miterlimit="10" d="M481.9,455.2c0,10.7,0,21.3,0,32
			c-10.7-0.1-21.3-0.2-32-0.3c0,6.9,0,13.8,0,20.7c10.4,0,20.9,0,31.3,0c0,10.6,0,21.1,0,31.7c7.2,0,14.4,0,21.7,0
			c0-10.4,0-20.9,0-31.3c10.6,0,21.1,0,31.7,0c0-6.6,0-13.1,0-19.7c-10.6-0.1-21.1-0.2-31.7-0.3c0-10.9,0-21.8,0-32.7
			C495.9,455.2,488.9,455.2,481.9,455.2z"/>
		<linearGradient id="SVGID_37_" gradientUnits="userSpaceOnUse" x1="546.8981" y1="705.3461" x2="597.8984" y2="705.3461">
			<stop  offset="0" style="stop-color:#25CA95"/>
			<stop  offset="1" style="stop-color:#007492"/>
		</linearGradient>
		<path fill="none" stroke="url(#SVGID_37_)" stroke-width="12" stroke-miterlimit="10" d="M567.2,733.8c-4.8,0-9.6,0-14.3,0
			c0-9.7,0-19.3,0-29c0-1.2,0.1-9.6,7-15.3c5-4.1,10.6-4.3,12.3-4.3c0-4.8,0-4.8,0-14.3c0,9.6,0,9.6,0,14.3c1.9,0,6.6,0.2,11.3,3.3
			c6.6,4.5,8.1,11.6,8.3,13c0,10.7,0,21.3,0,32c-4.7,0-9.3,0-14,0"/>
		<linearGradient id="SVGID_38_" gradientUnits="userSpaceOnUse" x1="670.2318" y1="688.5128" x2="682.2318" y2="688.5128">
			<stop  offset="0" style="stop-color:#25CA95"/>
			<stop  offset="1" style="stop-color:#007492"/>
		</linearGradient>
		<path fill="none" stroke="url(#SVGID_38_)" stroke-width="12" stroke-miterlimit="10" d="M676.2,670.8c0,11.8,0,23.6,0,35.3"/>
		<linearGradient id="SVGID_39_" gradientUnits="userSpaceOnUse" x1="655.5651" y1="720.5961" x2="697.7318" y2="720.5961">
			<stop  offset="0" style="stop-color:#25CA95"/>
			<stop  offset="1" style="stop-color:#007492"/>
		</linearGradient>
		
			<ellipse fill="none" stroke="url(#SVGID_39_)" stroke-width="12" stroke-miterlimit="10" cx="676.6" cy="720.6" rx="15.1" ry="15.6"/>
		<linearGradient id="SVGID_40_" gradientUnits="userSpaceOnUse" x1="519.2378" y1="710.3882" x2="726.6292" y2="710.3882">
			<stop  offset="0" style="stop-color:#25CA95"/>
			<stop  offset="1" style="stop-color:#007492"/>
		</linearGradient>
		<path fill="none" stroke="url(#SVGID_40_)" stroke-width="13" stroke-miterlimit="10" d="M621.9,762.2c0-24,0-48,0-72
			c-6.9-6.6-13.8-13.1-20.7-19.7c0-5.4,0-10.9,0-16.3c0,5.4,0,10.9,0,16.3c-12.8,0-25.6,0-38.3,0c-19.6,5.1-27.5,15.8-30,19.7
			c-5.8,9.1-6.3,18.9-7,38.3c-0.5,13.6,0.3,24.8,1,32.3c64.1,0.1,128.2,0.2,192.3,0.3c0.7-8.8,1.2-21.1,0.7-36
			c-0.8-22.3-3.4-28.1-4.7-30.7c-2.3-4.7-9.3-16.3-29-23.7c-13.6,0-27.1,0-40.7,0c-0.7-5.7-1.3-11.3-2-17c0.3,5.6,0.7,11.1,1,16.7
			c-7.3,7-14.7,14-22,21"/>
		<linearGradient id="SVGID_41_" gradientUnits="userSpaceOnUse" x1="459.4874" y1="643.3641" x2="484.1385" y2="643.3641">
			<stop  offset="0" style="stop-color:#25CA95"/>
			<stop  offset="1" style="stop-color:#007492"/>
		</linearGradient>
		<path fill="none" stroke="url(#SVGID_41_)" stroke-width="8" stroke-miterlimit="10" d="M463.6,636c-0.8,6.5,4.2,11.4,8.7,11.2
			c4.2-0.2,8.5-5,7.8-11"/>
		<linearGradient id="SVGID_42_" gradientUnits="userSpaceOnUse" x1="634.9193" y1="711.2628" x2="652.2943" y2="711.2628">
			<stop  offset="0" style="stop-color:#25CA95"/>
			<stop  offset="1" style="stop-color:#007492"/>
		</linearGradient>
		<linearGradient id="SVGID_43_" gradientUnits="userSpaceOnUse" x1="634.4193" y1="711.2628" x2="652.7943" y2="711.2628">
			<stop  offset="0" style="stop-color:#25CA95"/>
			<stop  offset="1" style="stop-color:#007492"/>
		</linearGradient>
		<path fill="url(#SVGID_42_)" stroke="url(#SVGID_43_)" stroke-miterlimit="10" d="M647.5,716.3h-7.9c-2.6,0-4.8-2.1-4.8-4.8v-0.7
			c0-2.6,2.1-4.8,4.8-4.8h7.9c2.6,0,4.8,2.1,4.8,4.8v0.7C652.3,714.2,650.2,716.3,647.5,716.3z"/>
		<linearGradient id="SVGID_44_" gradientUnits="userSpaceOnUse" x1="634.9193" y1="727.2211" x2="652.2943" y2="727.2211">
			<stop  offset="0" style="stop-color:#25CA95"/>
			<stop  offset="1" style="stop-color:#007492"/>
		</linearGradient>
		<linearGradient id="SVGID_45_" gradientUnits="userSpaceOnUse" x1="634.4193" y1="727.2211" x2="652.7943" y2="727.2211">
			<stop  offset="0" style="stop-color:#25CA95"/>
			<stop  offset="1" style="stop-color:#007492"/>
		</linearGradient>
		<path fill="url(#SVGID_44_)" stroke="url(#SVGID_45_)" stroke-miterlimit="10" d="M647.5,732.3h-7.9c-2.6,0-4.8-2.1-4.8-4.8v-0.7
			c0-2.6,2.1-4.8,4.8-4.8h7.9c2.6,0,4.8,2.1,4.8,4.8v0.7C652.3,730.2,650.2,732.3,647.5,732.3z"/>
		<linearGradient id="SVGID_46_" gradientUnits="userSpaceOnUse" x1="492.673" y1="644.4865" x2="517.3241" y2="644.4865">
			<stop  offset="0" style="stop-color:#25CA95"/>
			<stop  offset="1" style="stop-color:#007492"/>
		</linearGradient>
		<path fill="none" stroke="url(#SVGID_46_)" stroke-width="8" stroke-miterlimit="10" d="M496.8,637.1c-0.8,6.5,4.2,11.4,8.7,11.2
			c4.2-0.2,8.5-5,7.8-11"/>
		<linearGradient id="SVGID_47_" gradientUnits="userSpaceOnUse" x1="760.7687" y1="634.9628" x2="785.4199" y2="634.9628">
			<stop  offset="0" style="stop-color:#25CA95"/>
			<stop  offset="1" style="stop-color:#007492"/>
		</linearGradient>
		<path fill="none" stroke="url(#SVGID_47_)" stroke-width="8" stroke-miterlimit="10" d="M764.8,627.6c-0.8,6.5,4.2,11.4,8.7,11.2
			c4.2-0.2,8.5-5,7.8-11"/>
		<linearGradient id="SVGID_48_" gradientUnits="userSpaceOnUse" x1="726.914" y1="634.9628" x2="751.5651" y2="634.9628">
			<stop  offset="0" style="stop-color:#25CA95"/>
			<stop  offset="1" style="stop-color:#007492"/>
		</linearGradient>
		<path fill="none" stroke="url(#SVGID_48_)" stroke-width="8" stroke-miterlimit="10" d="M731,627.6c-0.8,6.5,4.2,11.4,8.7,11.2
			c4.2-0.2,8.5-5,7.8-11"/>
		<linearGradient id="SVGID_49_" gradientUnits="userSpaceOnUse" x1="632.1011" y1="578.9168" x2="666.3624" y2="578.9168">
			<stop  offset="0" style="stop-color:#25CA95"/>
			<stop  offset="1" style="stop-color:#007492"/>
		</linearGradient>
		<path fill="none" stroke="url(#SVGID_49_)" stroke-width="10" stroke-miterlimit="10" d="M637.2,569.3c-1.1,8,5.2,14.8,12,14.8
			s13.1-6.8,12-14.8"/>
		<linearGradient id="SVGID_50_" gradientUnits="userSpaceOnUse" x1="577.413" y1="578.9168" x2="611.6742" y2="578.9168">
			<stop  offset="0" style="stop-color:#25CA95"/>
			<stop  offset="1" style="stop-color:#007492"/>
		</linearGradient>
		<path fill="none" stroke="url(#SVGID_50_)" stroke-width="10" stroke-miterlimit="10" d="M582.5,569.3c-1.1,8,5.2,14.8,12,14.8
			s13.1-6.8,12-14.8"/>
	</g>
</g>
<g id="Layer_3">
	<g display="inline">
		<linearGradient id="SVGID_51_" gradientUnits="userSpaceOnUse" x1="738" y1="126.75" x2="1069.5" y2="126.75">
			<stop  offset="0" style="stop-color:#25CA95"/>
			<stop  offset="1" style="stop-color:#007492"/>
		</linearGradient>
		<path fill="none" stroke="url(#SVGID_51_)" stroke-width="13" stroke-miterlimit="10" d="M780.5,146c-12,0-24,0-36,0
			c0-19.5,0-39,0-58.5c0.5-2.5,2.4-10.7,10-17c6-5,12.3-6.2,15-6.5c88.3,0,176.7,0,265,0c2.7,0.2,11,1.3,18.5,8
			c7.7,6.9,9.5,15.4,10,18c0,35.3,0,70.7,0,106"/>
		<linearGradient id="SVGID_52_" gradientUnits="userSpaceOnUse" x1="738" y1="244.2539" x2="1070" y2="244.2539">
			<stop  offset="0" style="stop-color:#25CA95"/>
			<stop  offset="1" style="stop-color:#007492"/>
		</linearGradient>
		<path fill="none" stroke="url(#SVGID_52_)" stroke-width="13" stroke-miterlimit="10" d="M780,145.5c-11.8,0-23.7,0-35.5,0
			c0-18.2,0-36.3,0-54.5c0.4-14.8,12.2-26.5,26-27c15-0.5,28.4,12.4,28,28.5c-0.5,110.3-1,220.7-1.5,331c88.8,0.3,177.7,0.7,266.5,1
			c0-7.2,0-14.3,0-21.5"/>
		<linearGradient id="SVGID_53_" gradientUnits="userSpaceOnUse" x1="943.5" y1="142.7834" x2="1043.9106" y2="142.7834">
			<stop  offset="0" style="stop-color:#25CA95"/>
			<stop  offset="1" style="stop-color:#007492"/>
		</linearGradient>
		<path fill="none" stroke="url(#SVGID_53_)" stroke-width="13" stroke-miterlimit="10" d="M1032.2,165h-76.9
			c-2.9,0-5.3-2.4-5.3-5.3v-33.9c0-2.9,2.4-5.3,5.3-5.3h76.9c2.9,0,5.3,2.4,5.3,5.3v33.9C1037.4,162.6,1035,165,1032.2,165z"/>
		<linearGradient id="SVGID_54_" gradientUnits="userSpaceOnUse" x1="981" y1="299.75" x2="1072.5" y2="299.75">
			<stop  offset="0" style="stop-color:#25CA95"/>
			<stop  offset="1" style="stop-color:#007492"/>
		</linearGradient>
		<path fill="none" stroke="url(#SVGID_54_)" stroke-width="10" stroke-miterlimit="10" d="M1010,260.5c10.7,0,21.3,0,32,0
			c0,8.2,0,16.3,0,24.5c8.5,0,17,0,25.5,0c0,10,0,20,0,30c-8.5,0-17,0-25.5,0c0,8,0,16,0,24c-9.8,0-19.7,0-29.5,0
			c0-7.8,0-15.7,0-23.5c-8.8,0-17.7,0-26.5,0c0-10.2,0-20.3,0-30.5c8,0,16,0,24,0C1010,276.8,1010,268.7,1010,260.5z"/>
		<linearGradient id="SVGID_55_" gradientUnits="userSpaceOnUse" x1="819" y1="232" x2="971.5" y2="232">
			<stop  offset="0" style="stop-color:#25CA95"/>
			<stop  offset="1" style="stop-color:#007492"/>
		</linearGradient>
		<path fill="none" stroke="url(#SVGID_55_)" stroke-width="10" stroke-miterlimit="10" d="M819,232c50.8,0,101.7,0,152.5,0"/>
		<linearGradient id="SVGID_56_" gradientUnits="userSpaceOnUse" x1="818.5" y1="285.5" x2="936.5" y2="285.5">
			<stop  offset="0" style="stop-color:#25CA95"/>
			<stop  offset="1" style="stop-color:#007492"/>
		</linearGradient>
		<path fill="none" stroke="url(#SVGID_56_)" stroke-width="10" stroke-miterlimit="10" d="M818.5,285.5c39.3,0,78.7,0,118,0"/>
		<linearGradient id="SVGID_57_" gradientUnits="userSpaceOnUse" x1="818" y1="339.5" x2="955.5" y2="339.5">
			<stop  offset="0" style="stop-color:#25CA95"/>
			<stop  offset="1" style="stop-color:#007492"/>
		</linearGradient>
		<path fill="none" stroke="url(#SVGID_57_)" stroke-width="10" stroke-miterlimit="10" d="M818,339.5c45.8,0,91.7,0,137.5,0"/>
		<linearGradient id="SVGID_58_" gradientUnits="userSpaceOnUse" x1="818" y1="393" x2="922.5" y2="393">
			<stop  offset="0" style="stop-color:#25CA95"/>
			<stop  offset="1" style="stop-color:#007492"/>
		</linearGradient>
		<path fill="none" stroke="url(#SVGID_58_)" stroke-width="10" stroke-miterlimit="10" d="M818,393c34.8,0,69.7,0,104.5,0"/>
		<linearGradient id="SVGID_59_" gradientUnits="userSpaceOnUse" x1="930.7996" y1="307.9708" x2="1122.1735" y2="307.9708">
			<stop  offset="0" style="stop-color:#25CA95"/>
			<stop  offset="1" style="stop-color:#007492"/>
		</linearGradient>
		<path fill="none" stroke="url(#SVGID_59_)" stroke-width="10" stroke-miterlimit="10" d="M981,215.5c30.3,0,60.7,0,91,0
			c1.4,4.8,6,18.7,20,29c9.9,7.3,19.9,9.3,25,10c0.7,14.4,0.1,44.4-16.5,76.5c-23.1,44.6-61.7,63.6-74,69
			c-11.8-4.9-44.6-20.4-68-57.5C935,305.3,935.3,268.8,936,256c5.4-1.1,15.3-3.9,25-11.5C974.3,234.1,979.3,220.9,981,215.5z"/>
		<linearGradient id="SVGID_60_" gradientUnits="userSpaceOnUse" x1="843.2216" y1="169.4211" x2="905.1141" y2="169.4211">
			<stop  offset="0" style="stop-color:#25CA95"/>
			<stop  offset="1" style="stop-color:#007492"/>
		</linearGradient>
		<path fill="none" stroke="url(#SVGID_60_)" stroke-width="10" stroke-miterlimit="10" d="M849,187.5c-0.5-2-2.7-12.2,3.5-21.5
			c3.1-4.7,7.1-7.2,9.5-8.5c1.4,1.4,4.6,4.1,9.5,5c9.3,1.7,16.2-4.7,17-5.5c2.3,2,5.5,5.5,8,10.5c3.9,7.8,3.8,15.1,3.5,18.5"/>
		<linearGradient id="SVGID_61_" gradientUnits="userSpaceOnUse" x1="818" y1="143.25" x2="930" y2="143.25">
			<stop  offset="0" style="stop-color:#25CA95"/>
			<stop  offset="1" style="stop-color:#007492"/>
		</linearGradient>
		<ellipse fill="none" stroke="url(#SVGID_61_)" stroke-width="10" stroke-miterlimit="10" cx="874" cy="143.3" rx="51" ry="51.8"/>
		<linearGradient id="SVGID_62_" gradientUnits="userSpaceOnUse" x1="852" y1="138.2834" x2="896.5" y2="138.2834">
			<stop  offset="0" style="stop-color:#25CA95"/>
			<stop  offset="1" style="stop-color:#007492"/>
		</linearGradient>
		<path fill="none" stroke="url(#SVGID_62_)" stroke-width="10" stroke-miterlimit="10" d="M876.1,159.6h-3.8
			c-8.5,0-15.4-6.9-15.4-15.4v-11.8c0-8.5,6.9-15.4,15.4-15.4h3.8c8.5,0,15.4,6.9,15.4,15.4v11.8
			C891.5,152.6,884.6,159.6,876.1,159.6z"/>
	</g>
</g>
</svg>
