<?xml version="1.0" encoding="utf-8"?>
<!-- Generator: Adobe Illustrator 18.1.1, SVG Export Plug-In . SVG Version: 6.00 Build 0)  -->
<svg version="1.1" id="Layer_1" xmlns="http://www.w3.org/2000/svg" xmlns:xlink="http://www.w3.org/1999/xlink" x="0px" y="0px"
	 viewBox="0 0 458.3 458.7" enable-background="new 0 0 458.3 458.7" xml:space="preserve">
<g id="Layer_3">
	<g>
		
			<linearGradient id="SVGID_1_" gradientUnits="userSpaceOnUse" x1="36.3278" y1="699.75" x2="367.8278" y2="699.75" gradientTransform="matrix(1 0 0 -1 0 802)">
			<stop  offset="0" style="stop-color:#25CA95"/>
			<stop  offset="1" style="stop-color:#007492"/>
		</linearGradient>
		<path fill="none" stroke="url(#SVGID_1_)" stroke-width="13" stroke-miterlimit="10" d="M78.8,121.5c-12,0-24,0-36,0
			c0-19.5,0-39,0-58.5c0.5-2.5,2.4-10.7,10-17c6-5,12.3-6.2,15-6.5c88.3,0,176.7,0,265,0c2.7,0.2,11,1.3,18.5,8
			c7.7,6.9,9.5,15.4,10,18c0,35.3,0,70.7,0,106"/>
		
			<linearGradient id="SVGID_2_" gradientUnits="userSpaceOnUse" x1="36.3278" y1="582.246" x2="368.3278" y2="582.246" gradientTransform="matrix(1 0 0 -1 0 802)">
			<stop  offset="0" style="stop-color:#25CA95"/>
			<stop  offset="1" style="stop-color:#007492"/>
		</linearGradient>
		<path fill="none" stroke="url(#SVGID_2_)" stroke-width="13" stroke-miterlimit="10" d="M78.3,121c-11.8,0-23.7,0-35.5,0
			c0-18.2,0-36.3,0-54.5c0.4-14.8,12.2-26.5,26-27c15-0.5,28.4,12.4,28,28.5c-0.5,110.3-1,220.7-1.5,331c88.8,0.3,177.7,0.7,266.5,1
			c0-7.2,0-14.3,0-21.5"/>
		
			<linearGradient id="SVGID_3_" gradientUnits="userSpaceOnUse" x1="241.8277" y1="683.75" x2="342.3278" y2="683.75" gradientTransform="matrix(1 0 0 -1 0 802)">
			<stop  offset="0" style="stop-color:#25CA95"/>
			<stop  offset="1" style="stop-color:#007492"/>
		</linearGradient>
		<path fill="none" stroke="url(#SVGID_3_)" stroke-width="13" stroke-miterlimit="10" d="M330.5,140.5h-76.9
			c-2.9,0-5.3-2.4-5.3-5.3v-33.9c0-2.9,2.4-5.3,5.3-5.3h76.9c2.9,0,5.3,2.4,5.3,5.3v33.9C335.7,138.1,333.3,140.5,330.5,140.5z"/>
		
			<linearGradient id="SVGID_4_" gradientUnits="userSpaceOnUse" x1="279.3278" y1="526.75" x2="370.8278" y2="526.75" gradientTransform="matrix(1 0 0 -1 0 802)">
			<stop  offset="0" style="stop-color:#25CA95"/>
			<stop  offset="1" style="stop-color:#007492"/>
		</linearGradient>
		<path fill="none" stroke="url(#SVGID_4_)" stroke-width="10" stroke-miterlimit="10" d="M308.3,236c10.7,0,21.3,0,32,0
			c0,8.2,0,16.3,0,24.5c8.5,0,17,0,25.5,0c0,10,0,20,0,30c-8.5,0-17,0-25.5,0c0,8,0,16,0,24c-9.8,0-19.7,0-29.5,0
			c0-7.8,0-15.7,0-23.5c-8.8,0-17.7,0-26.5,0c0-10.2,0-20.3,0-30.5c8,0,16,0,24,0C308.3,252.3,308.3,244.2,308.3,236z"/>
		
			<linearGradient id="SVGID_5_" gradientUnits="userSpaceOnUse" x1="117.3278" y1="594.5" x2="269.8278" y2="594.5" gradientTransform="matrix(1 0 0 -1 0 802)">
			<stop  offset="0" style="stop-color:#25CA95"/>
			<stop  offset="1" style="stop-color:#007492"/>
		</linearGradient>
		<path fill="none" stroke="url(#SVGID_5_)" stroke-width="10" stroke-miterlimit="10" d="M117.3,207.5c50.8,0,101.7,0,152.5,0"/>
		
			<linearGradient id="SVGID_6_" gradientUnits="userSpaceOnUse" x1="116.8278" y1="541" x2="234.8278" y2="541" gradientTransform="matrix(1 0 0 -1 0 802)">
			<stop  offset="0" style="stop-color:#25CA95"/>
			<stop  offset="1" style="stop-color:#007492"/>
		</linearGradient>
		<path fill="none" stroke="url(#SVGID_6_)" stroke-width="10" stroke-miterlimit="10" d="M116.8,261c39.3,0,78.7,0,118,0"/>
		
			<linearGradient id="SVGID_7_" gradientUnits="userSpaceOnUse" x1="116.3278" y1="487" x2="253.8278" y2="487" gradientTransform="matrix(1 0 0 -1 0 802)">
			<stop  offset="0" style="stop-color:#25CA95"/>
			<stop  offset="1" style="stop-color:#007492"/>
		</linearGradient>
		<path fill="none" stroke="url(#SVGID_7_)" stroke-width="10" stroke-miterlimit="10" d="M116.3,315c45.8,0,91.7,0,137.5,0"/>
		
			<linearGradient id="SVGID_8_" gradientUnits="userSpaceOnUse" x1="116.3278" y1="433.5" x2="220.8278" y2="433.5" gradientTransform="matrix(1 0 0 -1 0 802)">
			<stop  offset="0" style="stop-color:#25CA95"/>
			<stop  offset="1" style="stop-color:#007492"/>
		</linearGradient>
		<path fill="none" stroke="url(#SVGID_8_)" stroke-width="10" stroke-miterlimit="10" d="M116.3,368.5c34.8,0,69.7,0,104.5,0"/>
		
			<linearGradient id="SVGID_9_" gradientUnits="userSpaceOnUse" x1="229.1182" y1="518.5317" x2="420.5055" y2="518.5317" gradientTransform="matrix(1 0 0 -1 0 802)">
			<stop  offset="0" style="stop-color:#25CA95"/>
			<stop  offset="1" style="stop-color:#007492"/>
		</linearGradient>
		<path fill="none" stroke="url(#SVGID_9_)" stroke-width="10" stroke-miterlimit="10" d="M279.3,191c30.3,0,60.7,0,91,0
			c1.4,4.8,6,18.7,20,29c9.9,7.3,19.9,9.3,25,10c0.7,14.4,0.1,44.4-16.5,76.5c-23.1,44.6-61.7,63.6-74,69
			c-11.8-4.9-44.6-20.4-68-57.5c-23.5-37.2-23.2-73.7-22.5-86.5c5.4-1.1,15.3-3.9,25-11.5C272.6,209.6,277.6,196.4,279.3,191z"/>
		
			<linearGradient id="SVGID_10_" gradientUnits="userSpaceOnUse" x1="141.5404" y1="657.0602" x2="203.4569" y2="657.0602" gradientTransform="matrix(1 0 0 -1 0 802)">
			<stop  offset="0" style="stop-color:#25CA95"/>
			<stop  offset="1" style="stop-color:#007492"/>
		</linearGradient>
		<path fill="none" stroke="url(#SVGID_10_)" stroke-width="10" stroke-miterlimit="10" d="M147.3,163c-0.5-2-2.7-12.2,3.5-21.5
			c3.1-4.7,7.1-7.2,9.5-8.5c1.4,1.4,4.6,4.1,9.5,5c9.3,1.7,16.2-4.7,17-5.5c2.3,2,5.5,5.5,8,10.5c3.9,7.8,3.8,15.1,3.5,18.5"/>
		
			<linearGradient id="SVGID_11_" gradientUnits="userSpaceOnUse" x1="116.3278" y1="683.2" x2="228.3278" y2="683.2" gradientTransform="matrix(1 0 0 -1 0 802)">
			<stop  offset="0" style="stop-color:#25CA95"/>
			<stop  offset="1" style="stop-color:#007492"/>
		</linearGradient>
		
			<ellipse fill="none" stroke="url(#SVGID_11_)" stroke-width="10" stroke-miterlimit="10" cx="172.3" cy="118.8" rx="51" ry="51.8"/>
		
			<linearGradient id="SVGID_12_" gradientUnits="userSpaceOnUse" x1="150.3278" y1="688.2" x2="194.8278" y2="688.2" gradientTransform="matrix(1 0 0 -1 0 802)">
			<stop  offset="0" style="stop-color:#25CA95"/>
			<stop  offset="1" style="stop-color:#007492"/>
		</linearGradient>
		<path fill="none" stroke="url(#SVGID_12_)" stroke-width="10" stroke-miterlimit="10" d="M174.4,135.1h-3.8
			c-8.5,0-15.4-6.9-15.4-15.4v-11.8c0-8.5,6.9-15.4,15.4-15.4h3.8c8.5,0,15.4,6.9,15.4,15.4v11.8
			C189.8,128.1,182.9,135.1,174.4,135.1z"/>
	</g>
</g>
</svg>
