<?xml version="1.0" encoding="utf-8"?>
<!-- Generator: Adobe Illustrator 18.1.1, SVG Export Plug-In . SVG Version: 6.00 Build 0)  -->
<svg version="1.1" xmlns="http://www.w3.org/2000/svg" xmlns:xlink="http://www.w3.org/1999/xlink" x="0px" y="0px"
	 viewBox="0 0 1280 800" enable-background="new 0 0 1280 800" xml:space="preserve">
<g id="Layer_1" display="none">
	
		<image display="inline" overflow="visible" width="1300" height="1300" xlink:href="119068881-set-of-abstract-a-letter-logo-design-vector.png"  transform="matrix(1 0 0 1 -10 -250)">
	</image>
</g>
<g id="Layer_2" display="none">
	<path fill="none" stroke="#231F20" stroke-width="9" stroke-miterlimit="10" d="M948.2,604.8c19-25.6,48-71.9,61.3-136.2
		c3.4-16.5,23.4-120.5-30.7-228.2C924.2,131.4,803.1,37.2,655.3,39.4c-169.8,2.6-268,131.1-279.3,146.5
		C366.4,199,264,343.2,325,516.2c44,124.8,153.8,210.3,275.9,231.6c158.4,27.6,275.1-63.9,292.9-78.3
		c-35.3-31.8-64.6-57.3-85.1-74.9C794,582,777.4,570.2,755,549.3c-11.6-10.8-15.8-15.5-36.8-35.9c-44.2-42.8-48.5-44.3-52.6-44.8
		c-23.7-3.2-34.2,26.3-81.7,68.1c-32.9,28.9-70.7,62.2-115.8,57.9c-2.7-0.3-47.2-5.1-64.7-37.5c-8.5-15.8-11.8-40.2,44.3-153.3
		c27.6-55.7,42.2-85.1,71.5-129.4c64.2-97,97.9-148.5,136.2-149.9c44.8-1.6,81.1,65.8,145.6,185.3c23.3,43.2,29.4,60.6,65.6,134.9
		C900.1,513.7,929.1,569,948.2,604.8z"/>
	<linearGradient id="SVGID_1_" gradientUnits="userSpaceOnUse" x1="584.2038" y1="190.4379" x2="1050.2161" y2="427.8829">
		<stop  offset="0" style="stop-color:#7B4397"/>
		<stop  offset="1" style="stop-color:#DC2430"/>
	</linearGradient>
	<path display="inline" fill="url(#SVGID_1_)" d="M1020.8,398.8c0,80.2-26.2,154.3-70.4,214.1C899,504.5,850.9,406.1,807.3,318.7
		c-11.4-22.8-103.1-197.8-150-196c-24.6,0.9-44.6,20.5-58.6,39.2c3-4.4,68.1-96.6,154.6-100.5c19.1-0.9,37.8,2.6,56,9.4
		c22.7,8.4,44.6,21.9,65.3,38.3c0.1,0,0.1,0.1,0.2,0.1c26,19.2,49.4,41.9,69.3,67.4C992.2,237.7,1020.8,314.9,1020.8,398.8z"/>
	<linearGradient id="SVGID_2_" gradientUnits="userSpaceOnUse" x1="584.5938" y1="190.437" x2="1050.606" y2="427.882">
		<stop  offset="0" style="stop-color:#000000;stop-opacity:0.5"/>
		<stop  offset="1" style="stop-color:#DC2430;stop-opacity:0"/>
	</linearGradient>
	<path display="inline" fill="url(#SVGID_2_)" d="M1021.2,398.8c0,80.2-26.2,154.3-70.4,214.1c-51.4-108.3-99.5-206.8-143.1-294.2
		c-11.4-22.8-103.1-197.8-150-196c-24.6,0.9-44.6,20.5-58.6,39.2c3-4.4,68.1-96.6,154.6-100.5c19.1-0.9,37.8,2.6,56,9.4
		c22.7,8.4,44.6,21.9,65.3,38.3c0.1,0,0.1,0.1,0.2,0.1c26,19.2,49.4,41.9,69.3,67.4C992.6,237.7,1021.2,314.9,1021.2,398.8z"/>
	<linearGradient id="SVGID_3_" gradientUnits="userSpaceOnUse" x1="584.2038" y1="190.4379" x2="1050.2161" y2="427.8829">
		<stop  offset="0" style="stop-color:#7B4397;stop-opacity:0"/>
		<stop  offset="1" style="stop-color:#FFFFFF;stop-opacity:0.2"/>
	</linearGradient>
	<path display="inline" fill="url(#SVGID_3_)" d="M1020.8,398.8c0,80.2-26.2,154.3-70.4,214.1C899,504.5,850.9,406.1,807.3,318.7
		c-11.4-22.8-103.1-197.8-150-196c-24.6,0.9-44.6,20.5-58.6,39.2c3-4.4,68.1-96.6,154.6-100.5c19.1-0.9,37.8,2.6,56,9.4
		c22.7,8.4,44.6,21.9,65.3,38.3c0.1,0,0.1,0.1,0.2,0.1c26,19.2,49.4,41.9,69.3,67.4C992.2,237.7,1020.8,314.9,1020.8,398.8z"/>
	<linearGradient id="SVGID_4_" gradientUnits="userSpaceOnUse" x1="440.9593" y1="592.1963" x2="619.0867" y2="9.5678">
		<stop  offset="0" style="stop-color:#7B4397"/>
		<stop  offset="1" style="stop-color:#DC2430"/>
	</linearGradient>
	<path display="inline" fill="url(#SVGID_4_)" d="M811.2,71.4c-0.6-0.2-1.2-0.5-1.8-0.7c-18.2-6.8-36.9-10.3-56-9.4
		c-80.7,3.7-142.8,84.2-153.1,98.5c-6.1,7.4-12.7,15.5-19.5,24.2c-19.5,24.8-228.3,293.8-161.3,382.7c9.9,13.1,27.7,24.9,47.3,28
		c20.4,3.2,39-3.5,53.2-11.8c-14.7,9.3-31.1,15-50.5,14.5c-75.3-2.3-129.4-96-134.7-105.3c-23-41-28.2-80.8-28.8-107.1
		c7.4-192,164.7-345.3,357.7-345.3C716.2,39.6,766.2,51,811.2,71.4z"/>
	<linearGradient id="SVGID_5_" gradientUnits="userSpaceOnUse" x1="440.9593" y1="592.1963" x2="619.0867" y2="9.5678">
		<stop  offset="0" style="stop-color:#000000;stop-opacity:0.5"/>
		<stop  offset="1" style="stop-color:#DC2430;stop-opacity:0"/>
	</linearGradient>
	<path display="inline" fill="url(#SVGID_5_)" d="M811.2,71.4c-0.6-0.2-1.2-0.5-1.8-0.7c-18.2-6.8-36.9-10.3-56-9.4
		c-80.7,3.7-142.8,84.2-153.1,98.5c-6.1,7.4-12.7,15.5-19.5,24.2c-19.5,24.8-228.3,293.8-161.3,382.7c9.9,13.1,27.7,24.9,47.3,28
		c20.4,3.2,39-3.5,53.2-11.8c-14.7,9.3-31.1,15-50.5,14.5c-75.3-2.3-129.4-96-134.7-105.3c-23-41-28.2-80.8-28.8-107.1
		c7.4-192,164.7-345.3,357.7-345.3C716.2,39.6,766.2,51,811.2,71.4z"/>
	<linearGradient id="SVGID_6_" gradientUnits="userSpaceOnUse" x1="440.9593" y1="592.1963" x2="619.0867" y2="9.5678">
		<stop  offset="0" style="stop-color:#7B4397;stop-opacity:0"/>
		<stop  offset="1" style="stop-color:#FFFFFF;stop-opacity:0.2"/>
	</linearGradient>
	<path display="inline" fill="url(#SVGID_6_)" d="M811.2,71.4c-0.6-0.2-1.2-0.5-1.8-0.7c-18.2-6.8-36.9-10.3-56-9.4
		c-80.7,3.7-142.8,84.2-153.1,98.5c-6.1,7.4-12.7,15.5-19.5,24.2c-19.5,24.8-228.3,293.8-161.3,382.7c9.9,13.1,27.7,24.9,47.3,28
		c20.4,3.2,39-3.5,53.2-11.8c-14.7,9.3-31.1,15-50.5,14.5c-75.3-2.3-129.4-96-134.7-105.3c-23-41-28.2-80.8-28.8-107.1
		c7.4-192,164.7-345.3,357.7-345.3C716.2,39.6,766.2,51,811.2,71.4z"/>
	<linearGradient id="SVGID_7_" gradientUnits="userSpaceOnUse" x1="895.33" y1="569.605" x2="305.33" y2="569.605">
		<stop  offset="0" style="stop-color:#7B4397"/>
		<stop  offset="1" style="stop-color:#DC2430"/>
	</linearGradient>
	<path display="inline" fill="url(#SVGID_7_)" d="M895.3,672c-0.7,0.8-1.3,1.6-2,2.4c-62.2,52.4-142.5,84-230,84
		c-197.7,0-358-160.9-358-359.4c0-6.1,0.1-12.2,0.5-18.2c0.2,26,4.7,68,28.9,111.2c5.2,9.4,59.3,103.1,134.7,105.3
		c87.7,2.6,113.3-122.2,196-132.7C714.4,458.5,788.3,491.9,895.3,672z"/>
	<linearGradient id="SVGID_8_" gradientUnits="userSpaceOnUse" x1="893.77" y1="569.605" x2="303.77" y2="569.605">
		<stop  offset="0" style="stop-color:#000000;stop-opacity:0.5"/>
		<stop  offset="1" style="stop-color:#DC2430;stop-opacity:0"/>
	</linearGradient>
	<path display="inline" fill="url(#SVGID_8_)" d="M893.8,672c-0.7,0.8-1.3,1.6-2,2.4c-62.2,52.4-142.5,84-230,84
		c-197.7,0-358-160.9-358-359.4c0-6.1,0.1-12.2,0.5-18.2c0.2,26,4.7,68,28.9,111.2c5.2,9.4,59.3,103.1,134.7,105.3
		c87.7,2.6,113.3-122.2,196-132.7C712.8,458.5,786.8,491.9,893.8,672z"/>
	<linearGradient id="SVGID_9_" gradientUnits="userSpaceOnUse" x1="895.33" y1="569.605" x2="305.33" y2="569.605">
		<stop  offset="0" style="stop-color:#7B4397;stop-opacity:0"/>
		<stop  offset="1" style="stop-color:#FFFFFF;stop-opacity:0.2"/>
	</linearGradient>
	<path display="inline" fill="url(#SVGID_9_)" d="M895.3,672c-0.7,0.8-1.3,1.6-2,2.4c-62.2,52.4-142.5,84-230,84
		c-197.7,0-358-160.9-358-359.4c0-6.1,0.1-12.2,0.5-18.2c0.2,26,4.7,68,28.9,111.2c5.2,9.4,59.3,103.1,134.7,105.3
		c87.7,2.6,113.3-122.2,196-132.7C714.4,458.5,788.3,491.9,895.3,672z"/>
</g>
<g id="Layer_3">
	<path display="none" fill="none" stroke="#00F4FF" stroke-width="30" stroke-miterlimit="10" d="M895.3,672c-0.7,0.8-1.3,1.6-2,2.4
		c-62.2,52.4-142.5,84-230,84c-197.7,0-358-160.9-358-359.4c0-6.1,0.1-12.2,0.5-18.2c0,1.3,0,2.7,0.1,4.1c0,0.7,0,1.5,0.1,2.3
		c0,0.1,0,0.2,0,0.3c0,0.8,0.1,1.6,0.1,2.5c0,0,0,0.1,0,0.1c0,0.9,0.1,1.8,0.1,2.7c0,0.3,0,0.7,0.1,1v0.1c0,0.5,0.1,1,0.1,1.6
		c0,0.1,0,0.1,0,0.2c0.1,0.8,0.1,1.5,0.2,2.3c0,0.3,0,0.5,0.1,0.8c0.1,1.7,0.3,3.5,0.5,5.3c0,0.2,0,0.5,0.1,0.7
		c0.1,0.8,0.2,1.5,0.3,2.3c0.1,1,0.2,2,0.4,3c0.1,0.9,0.2,1.8,0.4,2.7c0,0.3,0.1,0.5,0.1,0.8c0.3,1.8,0.5,3.6,0.8,5.5
		c0.2,1.3,0.5,2.6,0.7,4c0.2,1.1,0.4,2.2,0.6,3.3c0.3,1.3,0.5,2.5,0.8,3.8c0.2,1,0.4,2,0.7,3c0.1,0.6,0.3,1.2,0.4,1.7
		c0.1,0.6,0.3,1.2,0.4,1.7c0.1,0.6,0.3,1.2,0.4,1.7c0.2,0.6,0.3,1.2,0.5,1.8c0.5,1.8,1,3.5,1.5,5.3c0.2,0.6,0.4,1.2,0.5,1.8
		c2.2,7.4,4.9,15.1,8.2,22.9c0.3,0.7,0.6,1.3,0.8,2c0.2,0.5,0.5,1,0.7,1.6c1.2,2.8,2.6,5.6,4,8.4c0.3,0.7,0.7,1.3,1,2
		c1.4,2.7,2.8,5.4,4.3,8.1c5.2,9.4,59.3,103.1,134.7,105.3c1.5,0,3,0,4.4,0c0.6,0,1.1,0,1.7,0c0.5,0,0.9,0,1.4-0.1
		c0.2,0,0.4,0,0.6,0c0.3,0,0.7,0,1.1-0.1c1.9-0.1,3.8-0.3,5.7-0.6c0.5-0.1,0.9-0.1,1.4-0.2c1.1-0.2,2.2-0.4,3.2-0.6
		c0.3,0,0.6-0.1,0.8-0.2c0.5-0.1,1-0.2,1.4-0.3c0.5-0.1,1-0.2,1.4-0.3c2.2-0.5,4.4-1.2,6.6-1.9c0.5-0.1,0.9-0.3,1.4-0.5
		c0.4-0.1,0.7-0.3,1.1-0.4c1.1-0.4,2.2-0.9,3.3-1.3c1.1-0.5,2.2-1,3.3-1.5c0.5-0.3,1.1-0.5,1.6-0.8c0.5-0.2,0.9-0.5,1.4-0.7
		c0.6-0.3,1.2-0.6,1.8-0.9c0.4-0.2,0.8-0.4,1.2-0.7c0.2-0.1,0.4-0.3,0.7-0.4c0.8-0.4,1.6-0.9,2.3-1.4c0.2-0.1,0.4-0.2,0.6-0.3
		c0.5-0.3,1-0.6,1.5-0.9c0.2-0.1,0.3-0.2,0.5-0.3c0,0,0,0,0.1,0c51.3-32.7,81.1-110,145.5-118.2c49.1-6.2,122.9,27.2,229.9,207.2
		C895.3,671.9,895.3,672,895.3,672z"/>
	<path display="none" fill="none" stroke="#00F4FF" stroke-width="30" stroke-miterlimit="10" d="M811.2,71.4
		c-0.6-0.2-1.2-0.5-1.8-0.7c-1.4-0.5-2.9-1-4.3-1.5c-16.8-5.8-34.1-8.7-51.7-7.9c-1.5,0.1-2.9,0.2-4.4,0.3c-0.5,0-1.1,0.1-1.7,0.1
		c-0.7,0.1-1.3,0.1-2,0.2c-2,0.2-4,0.5-5.9,0.8c-0.7,0.1-1.3,0.2-2,0.3c-0.4,0.1-0.8,0.1-1.3,0.2c-0.5,0.1-0.9,0.2-1.3,0.3
		c-0.6,0.1-1.2,0.2-1.8,0.4c-0.6,0.1-1.2,0.3-1.8,0.4c-0.5,0.1-1,0.2-1.5,0.3c-0.6,0.1-1.3,0.3-1.9,0.5c-0.6,0.2-1.3,0.3-1.9,0.5
		c-1.2,0.3-2.4,0.6-3.5,1c-0.6,0.2-1.2,0.3-1.8,0.5c-0.8,0.2-1.6,0.5-2.4,0.7c-0.6,0.2-1.1,0.4-1.7,0.6c-14.8,4.9-28.7,12-41.4,20.1
		c-0.9,0.6-1.9,1.2-2.8,1.9c-4.3,2.8-8.4,5.8-12.3,8.8c-0.5,0.4-1,0.7-1.4,1.1c-0.2,0.2-0.5,0.3-0.7,0.5c-0.7,0.6-1.5,1.1-2.2,1.7
		c-0.6,0.5-1.2,1-1.8,1.5c-0.7,0.5-1.4,1.1-2,1.7c-6.8,5.6-13,11.3-18.7,16.8c-0.4,0.3-0.7,0.7-1,1c-6,5.9-11.2,11.5-15.7,16.6
		c-0.5,0.6-1,1.1-1.5,1.7c-2.3,2.6-4.3,5-6.1,7.3c-0.3,0.3-0.5,0.6-0.8,0.9c-1.3,1.6-2.5,3.1-3.5,4.4c-0.3,0.4-0.6,0.7-0.8,1.1
		c-0.2,0.2-0.3,0.4-0.5,0.6c-0.4,0.5-0.8,1-1.1,1.5c-0.7,1-1.4,1.8-1.9,2.5c-6.1,7.4-12.7,15.4-19.5,24.1
		c-19.5,24.8-228.3,293.8-161.3,382.7c9.9,13.1,27.7,24.9,47.3,28c20.4,3.2,38.9-3.5,53.1-11.8c-0.2,0.1-0.3,0.2-0.5,0.3
		c-0.5,0.3-1,0.6-1.5,0.9c-0.2,0.1-0.4,0.2-0.6,0.3c-0.8,0.5-1.6,0.9-2.3,1.4c-0.2,0.1-0.4,0.3-0.7,0.4c-0.4,0.2-0.8,0.4-1.2,0.7
		c-0.6,0.3-1.2,0.6-1.8,0.9c-0.5,0.2-0.9,0.5-1.4,0.7c-0.5,0.3-1.1,0.5-1.6,0.8c-1.1,0.5-2.2,1-3.3,1.5c-1.1,0.5-2.2,0.9-3.3,1.3
		c-0.4,0.1-0.7,0.3-1.1,0.4c-0.5,0.2-0.9,0.3-1.4,0.5c-2.1,0.7-4.3,1.4-6.6,1.9c-0.5,0.1-1,0.2-1.4,0.3c-0.5,0.1-0.9,0.2-1.4,0.3
		c-0.3,0.1-0.5,0.1-0.8,0.2c-1.1,0.2-2.1,0.4-3.2,0.6c-0.5,0.1-0.9,0.1-1.4,0.2c-1.9,0.3-3.8,0.5-5.7,0.6c-0.3,0-0.7,0.1-1.1,0.1
		c-0.2,0-0.4,0-0.6,0c-0.5,0-0.9,0.1-1.4,0.1c-0.6,0-1.1,0-1.7,0c-1.5,0-2.9,0-4.4,0c-75.3-2.3-129.4-96-134.7-105.3
		c-1.5-2.7-3-5.4-4.3-8.1c-0.3-0.7-0.7-1.3-1-2c-1.4-2.8-2.7-5.6-4-8.4c-0.2-0.5-0.5-1-0.7-1.6c-0.3-0.7-0.6-1.3-0.8-2
		c-3.3-7.8-6-15.4-8.2-22.9c-0.2-0.6-0.4-1.2-0.5-1.8c-0.5-1.8-1-3.6-1.5-5.3c-0.2-0.6-0.3-1.2-0.5-1.8c-0.1-0.6-0.3-1.2-0.4-1.7
		c-0.1-0.6-0.3-1.2-0.4-1.7c-0.2-0.6-0.3-1.2-0.4-1.7c-0.2-1-0.5-2-0.7-3c-0.3-1.3-0.5-2.6-0.8-3.8c-0.2-1.1-0.4-2.2-0.6-3.3
		c-0.3-1.3-0.5-2.7-0.7-4c-0.3-1.8-0.6-3.7-0.8-5.5c0-0.3-0.1-0.5-0.1-0.8c-0.1-0.9-0.3-1.8-0.4-2.7c-0.1-1-0.3-2-0.4-3
		c-0.1-0.8-0.2-1.6-0.3-2.3c0-0.2,0-0.5-0.1-0.7c-0.2-1.8-0.4-3.5-0.5-5.3c0-0.3,0-0.6-0.1-0.8c-0.1-0.8-0.1-1.5-0.2-2.3
		c0-0.1,0-0.1,0-0.2c0-0.6-0.1-1.2-0.1-1.7c0-0.3,0-0.7-0.1-1c0-0.9-0.1-1.8-0.1-2.7c0,0,0-0.1,0-0.1c0-0.8-0.1-1.7-0.1-2.5
		c0-0.1,0-0.2,0-0.3c0-0.8,0-1.5-0.1-2.3c7.4-192,164.7-345.3,357.7-345.3C716.2,39.6,766.2,51,811.2,71.4z"/>
	<path display="none" fill="none" stroke="#00F4FF" stroke-width="30" stroke-miterlimit="10" d="M1020.8,398.8
		c0,80.2-26.2,154.3-70.4,214.1C899,504.5,850.9,406.1,807.3,318.7c-11.4-22.8-103.1-197.8-150-196c-24.6,0.9-44.6,20.5-58.6,39.2
		c0.2-0.3,0.7-1,1.4-2c0.5-0.7,1.1-1.5,1.9-2.5c0.3-0.5,0.7-1,1.1-1.5c0.2-0.2,0.3-0.4,0.5-0.6c0.3-0.4,0.6-0.7,0.8-1.1
		c1-1.3,2.2-2.8,3.5-4.4c0.3-0.3,0.5-0.6,0.8-0.9c1.8-2.2,3.8-4.7,6.1-7.3c0.5-0.6,1-1.1,1.5-1.7c4.5-5.1,9.7-10.7,15.7-16.6
		c0.3-0.3,0.7-0.7,1-1c5.6-5.5,11.9-11.2,18.7-16.8c0.7-0.5,1.4-1.1,2-1.7c0.6-0.5,1.2-1,1.8-1.5c0.7-0.6,1.4-1.1,2.2-1.7
		c0.2-0.2,0.4-0.3,0.7-0.5c0.5-0.4,1-0.7,1.4-1.1c4-3,8.1-5.9,12.3-8.8c0.9-0.6,1.9-1.2,2.8-1.9c12.7-8.1,26.6-15.2,41.4-20.1
		c0.6-0.2,1.1-0.4,1.7-0.6c0.8-0.3,1.6-0.5,2.4-0.7c0.6-0.2,1.2-0.3,1.8-0.5c1.2-0.3,2.3-0.7,3.5-1c0.6-0.2,1.3-0.3,1.9-0.5
		c0.6-0.2,1.3-0.3,1.9-0.5c0.5-0.1,1-0.2,1.5-0.3c0.6-0.1,1.2-0.3,1.8-0.4c0.6-0.1,1.2-0.3,1.8-0.4c0.4-0.1,0.9-0.2,1.3-0.3
		c0.4-0.1,0.8-0.2,1.3-0.2c0.7-0.1,1.3-0.2,2-0.3c2-0.3,4-0.6,5.9-0.8c0.7-0.1,1.3-0.1,2-0.2c0.6,0,1.1-0.1,1.7-0.1
		c1.5-0.1,2.9-0.2,4.4-0.3c17.6-0.8,34.9,2.1,51.7,7.9c1.4,0.5,2.9,1,4.3,1.5c0.6,0.2,1.2,0.5,1.8,0.7c20.8,8,41,20.3,60.2,35
		c1.1,0.8,2.2,1.7,3.3,2.5c0.1,0,0.1,0.1,0.2,0.1c26,19.2,49.4,41.9,69.3,67.4C992.2,237.7,1020.8,314.9,1020.8,398.8z"/>
	<linearGradient id="SVGID_10_" gradientUnits="userSpaceOnUse" x1="358.631" y1="184.464" x2="969.4037" y2="612.1317">
		<stop  offset="0" style="stop-color:#DC2430"/>
		<stop  offset="1" style="stop-color:#7B4397"/>
	</linearGradient>
	<path fill="none" stroke="url(#SVGID_10_)" stroke-width="30" stroke-miterlimit="10" d="M598.8,161.8c0.2-0.3,0.7-1,1.4-2
		c-6.1,7.4-12.7,15.4-19.5,24.1c-19.5,24.8-228.3,293.8-161.3,382.7c9.9,13.1,27.7,24.9,47.3,28c20.4,3.2,38.9-3.5,53.1-11.8
		c0,0,0,0,0.1,0c51.3-32.7,81.1-110,145.5-118.2c49.1-6.2,122.9,27.2,229.9,207.2c-62.3,52.8-143,84.6-231.1,84.6
		c-197.7,0-358-160.3-358-358c0-1.5,0-3.1,0-4.6v-0.1c2.6-195.5,161.8-353.2,358-353.2c50,0,97.6,10.3,140.9,28.8
		c23.5,10.1,45.8,22.6,66.4,37.3c1.1,0.8,2.2,1.7,3.3,2.5c0.1,0,0.1,0.1,0.2,0.1c26,19.2,49.4,41.9,69.3,67.4
		c48,61.2,76.6,138.4,76.6,222.3c0,80.2-26.2,154.3-70.4,214.1C899,504.5,850.9,406.1,807.3,318.7c-11.4-22.8-103.1-197.8-150-196
		C632.7,123.6,612.8,143.2,598.8,161.8z"/>
</g>
</svg>
