<svg xmlns="http://www.w3.org/2000/svg" height="48" viewBox="0 -960 960 960" width="48">
    <defs>
        <linearGradient id="Colour" gradientUnits="userSpaceOnUse" x1="0%" y1="0%" x2="100%" y2="100%">
            <stop offset="0%" style="stop-color: #25ca95;" />
            <stop offset="50%" style="stop-color: #007492;" />
        </linearGradient>
    </defs>
    <path fill="url(#Colour)" d="M172-120q-41.777 0-59.388-39Q95-198 124-230l248-280v-270h-52q-12.75 0-21.375-8.675-8.625-8.676-8.625-21.5 0-12.825 8.625-21.325T320-840h320q12.75 0 21.375 8.675 8.625 8.676 8.625 21.5 0 12.825-8.625 21.325T640-780h-52v270l248 280q29 32 11.388 71-17.611 39-59.388 39H172Z"/>
</svg>