<?xml version="1.0" standalone="no"?>
<svg xmlns:xlink="http://www.w3.org/1999/xlink" id="wave" style="transform:rotate(0deg); transition: 0.3s" viewBox="0 0 1440 320" version="1.1" xmlns="http://www.w3.org/2000/svg">
    <defs>
        <linearGradient id="sw-gradient-0" x1="0" x2="0" y1="1" y2="0">
            <stop stop-color="rgba(37, 202, 149, 1)" offset="0%"/>
            <stop stop-color="rgba(0, 116, 146, 1)" offset="100%"/>
        </linearGradient>
    </defs>
    <path style="transform:translate(0, 0px); opacity:1" fill="url(#sw-gradient-0)" d="M0,288L24,277.3C48,267,96,245,144,240C192,235,240,245,288,224C336,203,384,149,432,144C480,139,528,181,576,170.7C624,160,672,96,720,96C768,96,816,160,864,202.7C912,245,960,267,1008,261.3C1056,256,1104,224,1152,202.7C1200,181,1248,171,1296,181.3C1344,192,1392,224,1440,229.3C1488,235,1536,213,1584,181.3C1632,149,1680,107,1728,90.7C1776,75,1824,85,1872,74.7C1920,64,1968,32,2016,21.3C2064,11,2112,21,2160,26.7C2208,32,2256,32,2304,64C2352,96,2400,160,2448,186.7C2496,213,2544,203,2592,176C2640,149,2688,107,2736,74.7C2784,43,2832,21,2880,42.7C2928,64,2976,128,3024,165.3C3072,203,3120,213,3168,213.3C3216,213,3264,203,3312,176C3360,149,3408,107,3432,85.3L3456,64L3456,320L3432,320C3408,320,3360,320,3312,320C3264,320,3216,320,3168,320C3120,320,3072,320,3024,320C2976,320,2928,320,2880,320C2832,320,2784,320,2736,320C2688,320,2640,320,2592,320C2544,320,2496,320,2448,320C2400,320,2352,320,2304,320C2256,320,2208,320,2160,320C2112,320,2064,320,2016,320C1968,320,1920,320,1872,320C1824,320,1776,320,1728,320C1680,320,1632,320,1584,320C1536,320,1488,320,1440,320C1392,320,1344,320,1296,320C1248,320,1200,320,1152,320C1104,320,1056,320,1008,320C960,320,912,320,864,320C816,320,768,320,720,320C672,320,624,320,576,320C528,320,480,320,432,320C384,320,336,320,288,320C240,320,192,320,144,320C96,320,48,320,24,320L0,320Z"/>
</svg>