<?xml version="1.0" standalone="no"?>
<svg xmlns:xlink="http://www.w3.org/1999/xlink" id="wave" style="transform:rotate(0deg); transition: 0.3s" viewBox="0 0 1440 490" version="1.1" xmlns="http://www.w3.org/2000/svg">
    <defs>
        <linearGradient id="sw-gradient-0" x1="0" x2="0" y1="1" y2="0">
            <stop stop-color="rgba(37, 202, 149, 1)" offset="0%"/>
            <stop stop-color="rgba(0, 116, 146, 1)" offset="100%"/>
        </linearGradient>
    </defs>
    <path style="transform:translate(0, 0px); opacity:1" fill="url(#sw-gradient-0)" d="M0,343L40,351.2C80,359,160,376,240,383.8C320,392,400,392,480,383.8C560,376,640,359,720,302.2C800,245,880,147,960,138.8C1040,131,1120,212,1200,212.3C1280,212,1360,131,1440,89.8C1520,49,1600,49,1680,81.7C1760,114,1840,180,1920,171.5C2000,163,2080,82,2160,98C2240,114,2320,229,2400,228.7C2480,229,2560,114,2640,57.2C2720,0,2800,0,2880,0C2960,0,3040,0,3120,65.3C3200,131,3280,261,3360,318.5C3440,376,3520,359,3600,367.5C3680,376,3760,408,3840,367.5C3920,327,4000,212,4080,163.3C4160,114,4240,131,4320,147C4400,163,4480,180,4560,220.5C4640,261,4720,327,4800,334.8C4880,343,4960,294,5040,277.7C5120,261,5200,278,5280,245C5360,212,5440,131,5520,98C5600,65,5680,82,5720,89.8L5760,98L5760,490L5720,490C5680,490,5600,490,5520,490C5440,490,5360,490,5280,490C5200,490,5120,490,5040,490C4960,490,4880,490,4800,490C4720,490,4640,490,4560,490C4480,490,4400,490,4320,490C4240,490,4160,490,4080,490C4000,490,3920,490,3840,490C3760,490,3680,490,3600,490C3520,490,3440,490,3360,490C3280,490,3200,490,3120,490C3040,490,2960,490,2880,490C2800,490,2720,490,2640,490C2560,490,2480,490,2400,490C2320,490,2240,490,2160,490C2080,490,2000,490,1920,490C1840,490,1760,490,1680,490C1600,490,1520,490,1440,490C1360,490,1280,490,1200,490C1120,490,1040,490,960,490C880,490,800,490,720,490C640,490,560,490,480,490C400,490,320,490,240,490C160,490,80,490,40,490L0,490Z"/>
</svg>