<?xml version="1.0" standalone="no"?>
<svg xmlns:xlink="http://www.w3.org/1999/xlink" id="wave" style="transform:rotate(0deg); transition: 0.3s" viewBox="0 0 1440 170" version="1.1" xmlns="http://www.w3.org/2000/svg"><defs><linearGradient id="sw-gradient-0" x1="0" x2="0" y1="1" y2="0"><stop stop-color="rgba(37, 202, 149, 1)" offset="0%"/><stop stop-color="rgba(0, 116, 146, 1)" offset="100%"/></linearGradient></defs><path style="transform:translate(0, 0px); opacity:1" fill="url(#sw-gradient-0)" d="M0,136L40,127.5C80,119,160,102,240,85C320,68,400,51,480,45.3C560,40,640,45,720,65.2C800,85,880,119,960,133.2C1040,147,1120,142,1200,133.2C1280,125,1360,113,1440,90.7C1520,68,1600,34,1680,36.8C1760,40,1840,79,1920,102C2000,125,2080,130,2160,130.3C2240,130,2320,125,2400,124.7C2480,125,2560,130,2640,133.2C2720,136,2800,136,2880,116.2C2960,96,3040,57,3120,59.5C3200,62,3280,108,3360,121.8C3440,136,3520,119,3600,96.3C3680,74,3760,45,3840,45.3C3920,45,4000,74,4080,82.2C4160,91,4240,79,4320,65.2C4400,51,4480,34,4560,39.7C4640,45,4720,74,4800,96.3C4880,119,4960,136,5040,144.5C5120,153,5200,153,5280,133.2C5360,113,5440,74,5520,48.2C5600,23,5680,11,5720,5.7L5760,0L5760,170L5720,170C5680,170,5600,170,5520,170C5440,170,5360,170,5280,170C5200,170,5120,170,5040,170C4960,170,4880,170,4800,170C4720,170,4640,170,4560,170C4480,170,4400,170,4320,170C4240,170,4160,170,4080,170C4000,170,3920,170,3840,170C3760,170,3680,170,3600,170C3520,170,3440,170,3360,170C3280,170,3200,170,3120,170C3040,170,2960,170,2880,170C2800,170,2720,170,2640,170C2560,170,2480,170,2400,170C2320,170,2240,170,2160,170C2080,170,2000,170,1920,170C1840,170,1760,170,1680,170C1600,170,1520,170,1440,170C1360,170,1280,170,1200,170C1120,170,1040,170,960,170C880,170,800,170,720,170C640,170,560,170,480,170C400,170,320,170,240,170C160,170,80,170,40,170L0,170Z"/></svg>