<?xml version="1.0" standalone="no"?>
<svg xmlns:xlink="http://www.w3.org/1999/xlink" id="wave" style="transform:rotate(0deg); transition: 0.3s" viewBox="0 0 1440 140" version="1.1" xmlns="http://www.w3.org/2000/svg"><defs><linearGradient id="sw-gradient-0" x1="0" x2="0" y1="1" y2="0"><stop stop-color="rgba(37, 202, 149, 1)" offset="0%"/><stop stop-color="rgba(0, 116, 146, 1)" offset="100%"/></linearGradient></defs><path style="transform:translate(0, 0px); opacity:1" fill="url(#sw-gradient-0)" d="M0,14L20,23.3C40,33,80,51,120,65.3C160,79,200,89,240,81.7C280,75,320,51,360,53.7C400,56,440,84,480,91C520,98,560,84,600,74.7C640,65,680,61,720,58.3C760,56,800,56,840,63C880,70,920,84,960,95.7C1000,107,1040,117,1080,107.3C1120,98,1160,70,1200,70C1240,70,1280,98,1320,102.7C1360,107,1400,89,1440,79.3C1480,70,1520,70,1560,74.7C1600,79,1640,89,1680,95.7C1720,103,1760,107,1800,102.7C1840,98,1880,84,1920,77C1960,70,2000,70,2040,74.7C2080,79,2120,89,2160,84C2200,79,2240,61,2280,49C2320,37,2360,33,2400,25.7C2440,19,2480,9,2520,14C2560,19,2600,37,2640,42C2680,47,2720,37,2760,39.7C2800,42,2840,56,2860,63L2880,70L2880,140L2860,140C2840,140,2800,140,2760,140C2720,140,2680,140,2640,140C2600,140,2560,140,2520,140C2480,140,2440,140,2400,140C2360,140,2320,140,2280,140C2240,140,2200,140,2160,140C2120,140,2080,140,2040,140C2000,140,1960,140,1920,140C1880,140,1840,140,1800,140C1760,140,1720,140,1680,140C1640,140,1600,140,1560,140C1520,140,1480,140,1440,140C1400,140,1360,140,1320,140C1280,140,1240,140,1200,140C1160,140,1120,140,1080,140C1040,140,1000,140,960,140C920,140,880,140,840,140C800,140,760,140,720,140C680,140,640,140,600,140C560,140,520,140,480,140C440,140,400,140,360,140C320,140,280,140,240,140C200,140,160,140,120,140C80,140,40,140,20,140L0,140Z"/></svg>