<?xml version="1.0" standalone="no"?>
<svg xmlns:xlink="http://www.w3.org/1999/xlink" id="wave" style="transform:rotate(0deg); transition: 0.3s" viewBox="0 0 1440 270" version="1.1" xmlns="http://www.w3.org/2000/svg"><defs><linearGradient id="sw-gradient-0" x1="0" x2="0" y1="1" y2="0"><stop stop-color="rgba(37, 202, 149, 1)" offset="0%"/><stop stop-color="rgba(0, 116, 146, 1)" offset="100%"/></linearGradient></defs><path style="transform:translate(0, 0px); opacity:1" fill="url(#sw-gradient-0)" d="M0,162L40,135C80,108,160,54,240,49.5C320,45,400,90,480,130.5C560,171,640,207,720,189C800,171,880,99,960,81C1040,63,1120,99,1200,135C1280,171,1360,207,1440,225C1520,243,1600,243,1680,207C1760,171,1840,99,1920,99C2000,99,2080,171,2160,207C2240,243,2320,243,2400,216C2480,189,2560,135,2640,103.5C2720,72,2800,63,2880,58.5C2960,54,3040,54,3120,63C3200,72,3280,90,3360,108C3440,126,3520,144,3600,153C3680,162,3760,162,3840,157.5C3920,153,4000,144,4080,126C4160,108,4240,81,4320,76.5C4400,72,4480,90,4560,117C4640,144,4720,180,4800,166.5C4880,153,4960,90,5040,81C5120,72,5200,117,5280,130.5C5360,144,5440,126,5520,121.5C5600,117,5680,126,5720,130.5L5760,135L5760,270L5720,270C5680,270,5600,270,5520,270C5440,270,5360,270,5280,270C5200,270,5120,270,5040,270C4960,270,4880,270,4800,270C4720,270,4640,270,4560,270C4480,270,4400,270,4320,270C4240,270,4160,270,4080,270C4000,270,3920,270,3840,270C3760,270,3680,270,3600,270C3520,270,3440,270,3360,270C3280,270,3200,270,3120,270C3040,270,2960,270,2880,270C2800,270,2720,270,2640,270C2560,270,2480,270,2400,270C2320,270,2240,270,2160,270C2080,270,2000,270,1920,270C1840,270,1760,270,1680,270C1600,270,1520,270,1440,270C1360,270,1280,270,1200,270C1120,270,1040,270,960,270C880,270,800,270,720,270C640,270,560,270,480,270C400,270,320,270,240,270C160,270,80,270,40,270L0,270Z"/></svg>